<?xml version="1.0" encoding="UTF-8" standalone="no"?>
<svg
   width="16"
   height="16"
   viewBox="0 0 36 36"
   version="1.1"
   id="svg4134"
   sodipodi:docname="clarity--remove-line.svg"
   inkscape:version="1.1.1 (3bf5ae0d25, 2021-09-20)"
   xmlns:inkscape="http://www.inkscape.org/namespaces/inkscape"
   xmlns:sodipodi="http://sodipodi.sourceforge.net/DTD/sodipodi-0.dtd"
   xmlns="http://www.w3.org/2000/svg"
   xmlns:svg="http://www.w3.org/2000/svg">
  <defs
     id="defs4138" />
  <sodipodi:namedview
     id="namedview4136"
     pagecolor="#ffffff"
     bordercolor="#666666"
     borderopacity="1.0"
     inkscape:pageshadow="2"
     inkscape:pageopacity="0.0"
     inkscape:pagecheckerboard="0"
     showgrid="false"
     inkscape:zoom="25.59375"
     inkscape:cx="6.2319902"
     inkscape:cy="4.9035409"
     inkscape:window-width="1920"
     inkscape:window-height="1027"
     inkscape:window-x="-8"
     inkscape:window-y="-8"
     inkscape:window-maximized="1"
     inkscape:current-layer="svg4134" />
  <path
     fill="currentColor"
     d="m 19.45022,18.087912 4.112308,-4.112307 a 0.84615385,0.84615385 0 0 0 -1.193077,-1.193077 l -4.112308,4.07 -4.137692,-4.137692 a 0.84615385,0.84615385 0 0 0 -1.193077,1.193076 l 4.129231,4.18 -4.044616,3.993847 a 0.84615385,0.84615385 0 1 0 1.193077,1.193077 l 4.036154,-4.036154 4.010769,4.010769 a 0.84615385,0.84615385 0 0 0 1.193077,-1.193077 z"
     class="clr-i-outline clr-i-outline-path-1"
     id="path4128"
     style="stroke-width:0.846154" />
  <path
     fill="currentColor"
     d="M 18.087913,31.626374 A 13.538462,13.538462 0 1 1 31.626374,18.087912 13.538462,13.538462 0 0 1 18.087913,31.626374 m 0,-25.3846158 A 11.846154,11.846154 0 1 0 29.934066,18.087912 11.846154,11.846154 0 0 0 18.087913,6.2417582"
     class="clr-i-outline clr-i-outline-path-2"
     id="path4130"
     style="stroke-width:0.846154" />
  <path
     fill="none"
     d="M0 0h36v36H0z"
     id="path4132" />
</svg>
