<?xml version="1.0" encoding="UTF-8" standalone="no"?>
<svg
   width="16"
   height="16"
   viewBox="0 0 36 36"
   version="1.1"
   id="svg1409"
   sodipodi:docname="toggle-br-activ.svg"
   inkscape:version="1.1.1 (3bf5ae0d25, 2021-09-20)"
   xmlns:inkscape="http://www.inkscape.org/namespaces/inkscape"
   xmlns:sodipodi="http://sodipodi.sourceforge.net/DTD/sodipodi-0.dtd"
   xmlns="http://www.w3.org/2000/svg"
   xmlns:svg="http://www.w3.org/2000/svg">
  <defs
     id="defs1413" />
  <sodipodi:namedview
     id="namedview1411"
     pagecolor="#ffffff"
     bordercolor="#666666"
     borderopacity="1.0"
     inkscape:pageshadow="2"
     inkscape:pageopacity="0.0"
     inkscape:pagecheckerboard="0"
     showgrid="false"
     inkscape:zoom="37.211494"
     inkscape:cx="5.0656391"
     inkscape:cy="8.3979428"
     inkscape:window-width="1920"
     inkscape:window-height="1027"
     inkscape:window-x="-8"
     inkscape:window-y="-8"
     inkscape:window-maximized="1"
     inkscape:current-layer="svg1409" />
  <path
     fill="currentColor"
     d="m 23.39431,26.460478 a 10.500123,9.3488293 0 1 1 10.500124,-9.34883 10.500123,9.3488293 0 0 1 -10.500124,9.34883 m 0,-17.529055 a 9.1876078,8.1802257 0 1 0 9.187608,8.180225 9.1876078,8.1802257 0 0 0 -9.187608,-8.180225"
     class="clr-i-outline clr-i-outline-path-2"
     id="path1405-3"
     style="display:inline;fill:#000000;stroke-width:0.619236" />
  <path
     fill="none"
     d="M 0,0 H 36 V 36 H 0 Z"
     id="path1407"
     style="display:none;fill:#999999" />
  <path
     fill="currentColor"
     d="m 12.870272,26.441852 a 10.930737,9.3488293 0 1 1 10.930738,-9.34883 10.930737,9.3488293 0 0 1 -10.930738,9.34883 m 0,-17.5290554 a 9.5643953,8.1802257 0 1 0 9.564395,8.1802254 9.5643953,8.1802257 0 0 0 -9.564395,-8.1802254"
     class="clr-i-outline clr-i-outline-path-2"
     id="path1405"
     style="display:inline;stroke-width:0.631806" />
  <path
     style="fill:#b3b3b3;stroke:#0a0000;stroke-width:0.0268734"
     d="M 7.870959,10.441343 C 7.0942909,9.8903722 6.5456545,9.0552741 6.3791938,8.1706772 c -0.056176,-0.2985287 -0.056176,-0.8324718 0,-1.1310005 C 6.5537558,6.112028 7.1188314,5.2795425 7.9644142,4.7042847 8.0904186,4.6185627 8.0983218,4.616773 8.1794016,4.6556001 8.5121965,4.8149675 9.1104436,5.3793604 9.3871452,5.7949986 9.7781623,6.382352 9.948031,6.9364145 9.9462431,7.6186137 9.9438944,8.5152466 9.5730947,9.3329316 8.8594731,10.015158 8.6414892,10.223552 8.1511873,10.589934 8.0938557,10.587272 8.083739,10.586802 7.9834355,10.521134 7.870959,10.441343 Z"
     id="path2338"
     transform="scale(2.25)" />
  <path
     style="fill:#b3b3b3;stroke:#0a0000;stroke-width:0.0268734"
     d="M 9.9321323,11.20353 C 9.8152119,11.1912 9.6217233,11.16141 9.5021577,11.13733 9.2193099,11.08035 8.694257,10.911387 8.7240976,10.886946 c 0.01276,-0.01045 0.1199439,-0.09103 0.2381869,-0.179054 0.1182431,-0.08803 0.3298712,-0.275472 0.4702848,-0.41654 C 10.83457,8.8828147 10.973674,6.819897 9.7703211,5.2825052 9.5671197,5.0228972 9.1658501,4.6316037 8.9151455,4.4485904 8.8153172,4.3757162 8.742759,4.3078693 8.753905,4.2978196 8.7904809,4.2648415 9.1992304,4.1398868 9.446006,4.0862445 c 1.725912,-0.3751668 3.55449,0.3183838 4.458899,1.6911895 0.563934,0.8559975 0.708233,1.908586 0.391323,2.8544988 -0.560852,1.6740322 -2.430039,2.7754732 -4.3640957,2.5715972 z"
     id="path2377"
     transform="scale(2.25)" />
  <path
     style="fill:#ffffff;stroke:#0a0000;stroke-width:0.0268734"
     d="M 7.8981393,10.421368 C 7.4461582,10.103954 7.0035554,9.5990182 6.746587,9.1076388 6.4820365,8.6017604 6.3689998,8.1519747 6.3689998,7.605177 c 0,-0.7053576 0.2027511,-1.3203824 0.6351209,-1.9265744 C 7.2091397,5.3911613 7.61395,4.988236 7.8977861,4.7890987 l 0.1985521,-0.1393028 0.1326601,0.072203 c 0.1996412,0.1086584 0.6102998,0.4630532 0.8393964,0.724392 0.5761798,0.6572683 0.8476801,1.3443946 0.8476801,2.1453498 0,0.8310284 -0.3146568,1.5941023 -0.9226652,2.2375537 -0.185822,0.1966546 -0.6547031,0.5889466 -0.8180223,0.6844026 l -0.079561,0.0465 z"
     id="path2615"
     transform="scale(2.25)" />
</svg>
