<?xml version="1.0"?>
<svg width="1280" height="256" xmlns="http://www.w3.org/2000/svg" xmlns:svg="http://www.w3.org/2000/svg">
 <g class="layer">
  <title>Layer 1</title>
  <path d="m321,168a36.07,36.07 0 0 0 -33.94,24l-94.06,0a28,28 0 0 1 0,-56l96,0a44,44 0 0 0 0,-88l-96,0a12,12 0 0 0 0,24l96,0a20,20 0 0 1 0,40l-96,0a52,52 0 0 0 0,104l94.06,0a36,36 0 1 0 33.94,-48m0,48a12,12 0 1 1 12,-12a12,12 0 0 1 -12,12" fill="#4288b3" id="svg_1"/>
  <text fill="#000000" font-family="Sans-serif" font-size="24" id="svg_2" stroke="#000000" stroke-width="0" text-anchor="middle" transform="matrix(16.4994, 0, 0, 12.8311, -4236.71, -741.548)" x="301.78" xml:space="preserve" y="75.65">p  th</text>
  <path d="m760.5,168.99a36.07,36.07 0 0 0 -33.94,24l-94.06,0a28,28 0 0 1 0,-56l96,0a44,44 0 0 0 0,-88l-96,0a12,12 0 0 0 0,24l96,0a20,20 0 0 1 0,40l-96,0a52,52 0 0 0 0,104l94.06,0a36,36 0 1 0 33.94,-48m0,48a12,12 0 1 1 12,-12a12,12 0 0 1 -12,12" fill="#4288b3" id="svg_7"/>
 </g>

</svg>