<?xml version="1.0" encoding="UTF-8" standalone="no"?>
<svg
   width="1280"
   height="256"
   version="1.1"
   id="svg844"
   sodipodi:docname="ph--path-bold-w-text-1.svg"
   inkscape:version="1.1.1 (3bf5ae0d25, 2021-09-20)"
   xmlns:inkscape="http://www.inkscape.org/namespaces/inkscape"
   xmlns:sodipodi="http://sodipodi.sourceforge.net/DTD/sodipodi-0.dtd"
   xmlns="http://www.w3.org/2000/svg"
   xmlns:svg="http://www.w3.org/2000/svg">
  <defs
     id="defs848" />
  <sodipodi:namedview
     id="namedview846"
     pagecolor="#ffffff"
     bordercolor="#666666"
     borderopacity="1.0"
     inkscape:pageshadow="2"
     inkscape:pageopacity="0.0"
     inkscape:pagecheckerboard="0"
     showgrid="false"
     inkscape:zoom="0.85390625"
     inkscape:cx="640"
     inkscape:cy="128.23422"
     inkscape:window-width="1920"
     inkscape:window-height="1027"
     inkscape:window-x="-8"
     inkscape:window-y="-8"
     inkscape:window-maximized="1"
     inkscape:current-layer="g842" />
  <g
     class="layer"
     id="g842"
     transform="translate(-25.763952,10.539799)">
    <title
       id="title837">Layer 1</title>
    <path
       d="m 254.24794,160.97347 a 36.07,36.07 0 0 0 -33.94,24 h -94.06 a 28,28 0 0 1 0,-56 h 96 a 44,44 0 0 0 0,-88.000002 h -96 a 12,12 0 0 0 0,24 h 96 a 20,20 0 0 1 0,40.000002 h -96 a 52,52 0 0 0 0,104 h 94.06 a 36,36 0 1 0 33.94,-48 m 0,48 a 12,12 0 1 1 12,-12 12,12 0 0 1 -12,12"
       fill="#4288b3"
       id="svg_1" />
    <text
       fill="#000000"
       font-family="Sans-serif"
       font-size="349.202px"
       id="svg_2"
       stroke="#000000"
       stroke-width="0"
       text-anchor="middle"
       transform="scale(1.1339715,0.8818564)"
       x="677.47986"
       xml:space="preserve"
       y="247.86908">p  th</text>
    <path
       d="m 760.5,168.99 a 36.07,36.07 0 0 0 -33.94,24 H 632.5 a 28,28 0 0 1 0,-56 h 96 a 44,44 0 0 0 0,-88 h -96 a 12,12 0 0 0 0,24 h 96 a 20,20 0 0 1 0,40 h -96 a 52,52 0 0 0 0,104 h 94.06 a 36,36 0 1 0 33.94,-48 m 0,48 a 12,12 0 1 1 12,-12 12,12 0 0 1 -12,12"
       fill="#4288b3"
       id="svg_7" />
  </g>
</svg>
