<?xml version="1.0" encoding="UTF-8" standalone="no"?>
<!DOCTYPE svg PUBLIC "-//W3C//DTD SVG 20010904//EN"
              "http://www.w3.org/TR/2001/REC-SVG-20010904/DTD/svg10.dtd">

<svg xmlns="http://www.w3.org/2000/svg"
     width="0.133333in" height="0.133333in"
     viewBox="0 0 12 12">
  <path id="Importierter Pfad"
        fill="none" stroke="black" stroke-width="1"
        d="M 9.38,7.69
           C 8.64,7.69 8.02,8.16 7.78,8.81
             7.78,8.81 3.38,8.81 3.38,8.81
             2.65,8.81 2.06,8.22 2.06,7.50
             2.06,6.78 2.65,6.19 3.38,6.19
             3.38,6.19 7.88,6.19 7.88,6.19
             9.01,6.19 9.94,5.26 9.94,4.12
             9.94,2.99 9.01,2.06 7.88,2.06
             7.88,2.06 3.38,2.06 3.38,2.06
             3.06,2.06 2.81,2.31 2.81,2.62
             2.81,2.94 3.06,3.19 3.38,3.19
             3.38,3.19 7.88,3.19 7.88,3.19
             8.39,3.19 8.81,3.61 8.81,4.12
             8.81,4.64 8.39,5.06 7.88,5.06
             7.88,5.06 3.38,5.06 3.38,5.06
             2.03,5.06 0.94,6.15 0.94,7.50
             0.94,8.85 2.03,9.94 3.38,9.94
             3.38,9.94 7.78,9.94 7.78,9.94
             8.02,10.59 8.64,11.06 9.38,11.06
             10.31,11.06 11.06,10.31 11.06,9.37
             11.06,8.44 10.31,7.69 9.38,7.69
             9.38,7.69 9.38,7.69 9.38,7.69M 9.38,9.94
           C 9.06,9.94 8.81,9.69 8.81,9.38
             8.81,9.06 9.06,8.81 9.38,8.81
             9.69,8.81 9.94,9.06 9.94,9.38
             9.94,9.69 9.69,9.94 9.38,9.94M 5.39,4.86
           C 5.39,4.86 5.39,15.00 5.39,15.00
             5.39,15.00 2.72,15.00 2.72,15.00
             2.72,15.00 2.72,5.00 2.72,5.00
             3.46,5.00 4.35,4.95 5.39,4.86 Z
           M 14.19,14.75
           C 13.53,14.92 12.89,15.00 12.28,15.00
             11.36,15.00 10.80,14.77 10.58,14.30
             10.13,14.77 9.49,15.00 8.66,15.00
             7.10,15.00 6.33,14.39 6.33,13.17
             6.33,12.25 7.04,11.59 8.47,11.20
             9.77,10.86 10.42,10.45 10.42,9.95
             10.42,9.32 10.05,9.00 9.30,9.00
             8.43,9.00 8.00,9.25 8.00,9.73
             8.00,9.88 8.07,10.08 8.20,10.33
             8.20,10.33 6.88,10.09 6.88,10.09
             6.84,9.90 6.83,9.71 6.83,9.53
             6.83,8.51 7.89,8.00 10.03,8.00
             12.06,8.00 13.08,8.45 13.08,9.36
             13.08,9.36 13.08,13.61 13.08,13.61
             13.08,13.87 13.23,14.00 13.53,14.00
             13.62,14.00 13.76,14.04 13.94,14.11
             13.94,14.11 14.19,14.75 14.19,14.75 Z
           M 10.41,10.80
           C 10.24,10.96 10.05,11.11 9.83,11.22
             9.27,11.51 9.00,12.00 9.00,12.69
             9.00,13.56 9.19,14.00 9.58,14.00
             10.13,14.00 10.41,13.60 10.41,12.80
             10.41,12.80 10.41,10.80 10.41,10.80 Z
           M 17.39,4.86
           C 17.39,4.86 17.39,15.00 17.39,15.00
             17.39,15.00 14.72,15.00 14.72,15.00
             14.72,15.00 14.72,5.00 14.72,5.00
             15.46,5.00 16.35,4.95 17.39,4.86 Z
           M 26.19,14.75
           C 25.53,14.92 24.89,15.00 24.28,15.00
             23.36,15.00 22.80,14.77 22.58,14.30
             22.13,14.77 21.49,15.00 20.66,15.00
             19.10,15.00 18.33,14.39 18.33,13.17
             18.33,12.25 19.04,11.59 20.47,11.20
             21.77,10.86 22.42,10.45 22.42,9.95
             22.42,9.32 22.05,9.00 21.30,9.00
             20.43,9.00 20.00,9.25 20.00,9.73
             20.00,9.88 20.07,10.08 20.20,10.33
             20.20,10.33 18.88,10.09 18.88,10.09
             18.84,9.90 18.83,9.71 18.83,9.53
             18.83,8.51 19.89,8.00 22.03,8.00
             24.06,8.00 25.08,8.45 25.08,9.36
             25.08,9.36 25.08,13.61 25.08,13.61
             25.08,13.87 25.23,14.00 25.53,14.00
             25.62,14.00 25.76,14.04 25.94,14.11
             25.94,14.11 26.19,14.75 26.19,14.75 Z
           M 22.41,10.80
           C 22.24,10.96 22.05,11.11 21.83,11.22
             21.27,11.51 21.00,12.00 21.00,12.69
             21.00,13.56 21.19,14.00 21.58,14.00
             22.13,14.00 22.41,13.60 22.41,12.80
             22.41,12.80 22.41,10.80 22.41,10.80 Z" />
</svg>
