<svg class="railroad-diagram" width="396" height="312" viewBox="0 0 396 312" xmlns="http://www.w3.org/2000/svg" xmlns:xlink="http://www.w3.org/1999/xlink">
<g transform="translate(.5 .5)">
<g class="Start">
<path d="M20 69v20m0 -10h20"></path>
</g>
<path d="M40 79h10"></path>
<g class="Group rule">
<path d="M50 79h0"></path>
<path d="M346 79h0"></path>
<rect x="50" y="36" width="296" height="256" rx="10" ry="10" class="group-box"></rect>
<g class="Choice">
<path d="M50 79h0"></path>
<path d="M346 79h0"></path>
<path d="M50 79h20"></path>
<g class="Group rule">
<path d="M70 79h0"></path>
<path d="M326 79h0"></path>
<rect x="70" y="60" width="256" height="38" rx="10" ry="10" class="group-box"></rect>
<g class="Sequence">
<path d="M70 79h10"></path>
<path d="M316 79h10"></path>
<path d="M185 79h10"></path>
<g class="non-terminal rule-ref">
<path d="M80 79h0"></path>
<path d="M185 79h0"></path>
<rect x="80" y="68" width="105" height="22"></rect>
<text x="132.5" y="83">Identifier</text>
</g>
<path d="M195 79h10"></path>
<path d="M250.5 79h10"></path>
<g class="terminal literal">
<path d="M205 79h0"></path>
<path d="M250.5 79h0"></path>
<rect x="205" y="68" width="45.5" height="22" rx="10" ry="10"></rect>
<text x="227.75" y="83">"("</text>
</g>
<path d="M260.5 79h10"></path>
<g class="terminal literal">
<path d="M270.5 79h0"></path>
<path d="M316 79h0"></path>
<rect x="270.5" y="68" width="45.5" height="22" rx="10" ry="10"></rect>
<text x="293.25" y="83">")"</text>
</g>
</g>
<g class="comment">
<path d="M70 52h0"></path>
<path d="M136 52h0"></path>
<text x="103" y="57" class="comment">StepFunc</text>
</g>
</g>
<path d="M326 79h20"></path>
<path d="M50 79a10 10 0 0 1 10 10v42a10 10 0 0 0 10 10"></path>
<g class="Group rule">
<path d="M70 141h65.5"></path>
<path d="M260.5 141h65.5"></path>
<rect x="135.5" y="122" width="125" height="38" rx="10" ry="10" class="group-box"></rect>
<g class="non-terminal rule-ref">
<path d="M135.5 141h10"></path>
<path d="M250.5 141h10"></path>
<rect x="145.5" y="130" width="105" height="22"></rect>
<text x="198" y="145">Identifier</text>
</g>
<g class="comment">
<path d="M135.5 114h0"></path>
<path d="M201.5 114h0"></path>
<text x="168.5" y="119" class="comment">Property</text>
</g>
</g>
<path d="M326 141a10 10 0 0 0 10 -10v-42a10 10 0 0 1 10 -10"></path>
<path d="M50 79a10 10 0 0 1 10 10v104a10 10 0 0 0 10 10"></path>
<g class="Group rule">
<path d="M70 203h95"></path>
<path d="M231 203h95"></path>
<rect x="165" y="184" width="66" height="38" rx="10" ry="10" class="group-box"></rect>
<g class="terminal literal">
<path d="M165 203h10.25"></path>
<path d="M220.75 203h10.25"></path>
<rect x="175.25" y="192" width="45.5" height="22" rx="10" ry="10"></rect>
<text x="198" y="207">"*"</text>
</g>
<g class="comment">
<path d="M165 176h0"></path>
<path d="M231 176h0"></path>
<text x="198" y="181" class="comment">Children</text>
</g>
</g>
<path d="M326 203a10 10 0 0 0 10 -10v-104a10 10 0 0 1 10 -10"></path>
<path d="M50 79a10 10 0 0 1 10 10v166a10 10 0 0 0 10 10"></path>
<g class="Group rule">
<path d="M70 265h25.5"></path>
<path d="M300.5 265h25.5"></path>
<rect x="95.5" y="246" width="205" height="38" rx="10" ry="10" class="group-box"></rect>
<g class="Sequence">
<path d="M95.5 265h10"></path>
<path d="M290.5 265h10"></path>
<path d="M151 265h10"></path>
<g class="terminal literal">
<path d="M105.5 265h0"></path>
<path d="M151 265h0"></path>
<rect x="105.5" y="254" width="45.5" height="22" rx="10" ry="10"></rect>
<text x="128.25" y="269">"("</text>
</g>
<path d="M161 265h10"></path>
<path d="M225 265h10"></path>
<g class="non-terminal rule-ref">
<path d="M171 265h0"></path>
<path d="M225 265h0"></path>
<rect x="171" y="254" width="54" height="22"></rect>
<text x="198" y="269">Expr</text>
</g>
<path d="M235 265h10"></path>
<g class="terminal literal">
<path d="M245 265h0"></path>
<path d="M290.5 265h0"></path>
<rect x="245" y="254" width="45.5" height="22" rx="10" ry="10"></rect>
<text x="267.75" y="269">")"</text>
</g>
</g>
<g class="comment">
<path d="M95.5 238h0"></path>
<path d="M266.5 238h0"></path>
<text x="181" y="243" class="comment">ParenthesizedExpression</text>
</g>
</g>
<path d="M326 265a10 10 0 0 0 10 -10v-166a10 10 0 0 1 10 -10"></path>
</g>
<g class="comment">
<path d="M50 28h0"></path>
<path d="M116 28h0"></path>
<text x="83" y="33" class="comment">BaseStep</text>
</g>
</g>
<path d="M346 79h10"></path>
<path class="End" d="M 356 79 h 20 m 0 -10 v 20"></path>
</g>
<style>svg {
  /*background-color: hsl(30,20%,95%);*/
  background-color: white;
}
path {
  stroke-width: 1;
  stroke: black;
  fill: rgba(0,0,0,0);
}
text {
  font: bold 14px monospace;
  text-anchor: middle;
  white-space: pre;
}
text.diagram-text {
  font-size: 12px;
}
text.diagram-arrow {
  font-size: 16px;
}
text.label {
  text-anchor: start;
}
text.comment {
  font: italic 12px monospace;
}
g.non-terminal text {
  /*font-style: italic;*/
}
rect {
  stroke-width: 1;
  stroke: black;
  fill: rgb(241, 241, 241);
}
rect.group-box {
  stroke: gray;
  stroke-dasharray: 3 3;
  fill: none;
}
path.diagram-text {
  stroke-width: 3;
  stroke: black;
  fill: white;
  cursor: help;
}
.decision path {
  fill: #ccc;
}
g.diagram-text:hover path.diagram-text {
  fill: #eee;
}
text.repeat-text {
  font: italic 12px monospace;
  text-anchor: end;
}
.repeat-box > rect.group-box {
  stroke: gray;
  stroke-width: 2;
  stroke-dasharray: 1 5;
  fill: none;
}
.delimiter > rect.group-box {
  stroke: gray;
  stroke-width: 2;
  stroke-dasharray: 1 5;
  fill: none;
}
</style>
</svg>
