<svg class="railroad-diagram" width="666" height="216" viewBox="0 0 666 216" xmlns="http://www.w3.org/2000/svg" xmlns:xlink="http://www.w3.org/1999/xlink">
<g transform="translate(.5 .5)">
<g class="Start">
<path d="M20 69v20m0 -10h20"></path>
</g>
<path d="M40 79h10"></path>
<g class="Group rule">
<path d="M50 79h0"></path>
<path d="M616 79h0"></path>
<rect x="50" y="36" width="566" height="160" rx="10" ry="10" class="group-box"></rect>
<g class="Sequence">
<path d="M50 79h10"></path>
<path d="M606 79h10"></path>
<path d="M315.5 79h10"></path>
<g class="Group rule">
<path d="M60 79h0"></path>
<path d="M315.5 79h0"></path>
<rect x="60" y="60" width="255.5" height="128" rx="10" ry="10" class="group-box"></rect>
<g class="Choice">
<path d="M60 79h0"></path>
<path d="M315.5 79h0"></path>
<path d="M60 79h20"></path>
<g class="non-terminal rule-ref">
<path d="M80 79h63.75"></path>
<path d="M231.75 79h63.75"></path>
<rect x="143.75" y="68" width="88" height="22"></rect>
<text x="187.75" y="83">StepFunc</text>
</g>
<path d="M295.5 79h20"></path>
<path d="M60 79a10 10 0 0 1 10 10v10a10 10 0 0 0 10 10"></path>
<g class="non-terminal rule-ref">
<path d="M80 109h63.75"></path>
<path d="M231.75 109h63.75"></path>
<rect x="143.75" y="98" width="88" height="22"></rect>
<text x="187.75" y="113">Property</text>
</g>
<path d="M295.5 109a10 10 0 0 0 10 -10v-10a10 10 0 0 1 10 -10"></path>
<path d="M60 79a10 10 0 0 1 10 10v40a10 10 0 0 0 10 10"></path>
<g class="non-terminal rule-ref">
<path d="M80 139h63.75"></path>
<path d="M231.75 139h63.75"></path>
<rect x="143.75" y="128" width="88" height="22"></rect>
<text x="187.75" y="143">Children</text>
</g>
<path d="M295.5 139a10 10 0 0 0 10 -10v-40a10 10 0 0 1 10 -10"></path>
<path d="M60 79a10 10 0 0 1 10 10v70a10 10 0 0 0 10 10"></path>
<g class="non-terminal rule-ref">
<path d="M80 169h0"></path>
<path d="M295.5 169h0"></path>
<rect x="80" y="158" width="215.5" height="22"></rect>
<text x="187.75" y="173">ParenthesizedExpression</text>
</g>
<path d="M295.5 169a10 10 0 0 0 10 -10v-70a10 10 0 0 1 10 -10"></path>
</g>
<g class="comment">
<path d="M60 52h0"></path>
<path d="M126 52h0"></path>
<text x="93" y="57" class="comment">BaseStep</text>
</g>
</g>
<path d="M325.5 79h10"></path>
<path d="M381 79h10"></path>
<g class="terminal literal">
<path d="M335.5 79h0"></path>
<path d="M381 79h0"></path>
<rect x="335.5" y="68" width="45.5" height="22" rx="10" ry="10"></rect>
<text x="358.25" y="83">"?"</text>
</g>
<path d="M391 79h10"></path>
<g class="Group rule">
<path d="M401 79h0"></path>
<path d="M606 79h0"></path>
<rect x="401" y="60" width="205" height="38" rx="10" ry="10" class="group-box"></rect>
<g class="Sequence">
<path d="M401 79h10"></path>
<path d="M596 79h10"></path>
<path d="M456.5 79h10"></path>
<g class="terminal literal">
<path d="M411 79h0"></path>
<path d="M456.5 79h0"></path>
<rect x="411" y="68" width="45.5" height="22" rx="10" ry="10"></rect>
<text x="433.75" y="83">"("</text>
</g>
<path d="M466.5 79h10"></path>
<path d="M530.5 79h10"></path>
<g class="non-terminal rule-ref">
<path d="M476.5 79h0"></path>
<path d="M530.5 79h0"></path>
<rect x="476.5" y="68" width="54" height="22"></rect>
<text x="503.5" y="83">Expr</text>
</g>
<path d="M540.5 79h10"></path>
<g class="terminal literal">
<path d="M550.5 79h0"></path>
<path d="M596 79h0"></path>
<rect x="550.5" y="68" width="45.5" height="22" rx="10" ry="10"></rect>
<text x="573.25" y="83">")"</text>
</g>
</g>
<g class="comment">
<path d="M401 52h0"></path>
<path d="M572 52h0"></path>
<text x="486.5" y="57" class="comment">ParenthesizedExpression</text>
</g>
</g>
</g>
<g class="comment">
<path d="M50 28h0"></path>
<path d="M102 28h0"></path>
<text x="76" y="33" class="comment">Filter</text>
</g>
</g>
<path d="M616 79h10"></path>
<path class="End" d="M 626 79 h 20 m 0 -10 v 20"></path>
</g>
<style>svg {
  /*background-color: hsl(30,20%,95%);*/
  background-color: white;
}
path {
  stroke-width: 1;
  stroke: black;
  fill: rgba(0,0,0,0);
}
text {
  font: bold 14px monospace;
  text-anchor: middle;
  white-space: pre;
}
text.diagram-text {
  font-size: 12px;
}
text.diagram-arrow {
  font-size: 16px;
}
text.label {
  text-anchor: start;
}
text.comment {
  font: italic 12px monospace;
}
g.non-terminal text {
  /*font-style: italic;*/
}
rect {
  stroke-width: 1;
  stroke: black;
  fill: rgb(241, 241, 241);
}
rect.group-box {
  stroke: gray;
  stroke-dasharray: 3 3;
  fill: none;
}
path.diagram-text {
  stroke-width: 3;
  stroke: black;
  fill: white;
  cursor: help;
}
.decision path {
  fill: #ccc;
}
g.diagram-text:hover path.diagram-text {
  fill: #eee;
}
text.repeat-text {
  font: italic 12px monospace;
  text-anchor: end;
}
.repeat-box > rect.group-box {
  stroke: gray;
  stroke-width: 2;
  stroke-dasharray: 1 5;
  fill: none;
}
.delimiter > rect.group-box {
  stroke: gray;
  stroke-width: 2;
  stroke-dasharray: 1 5;
  fill: none;
}
</style>
</svg>
