<svg class="railroad-diagram" width="618.5" height="112" viewBox="0 0 618.5 112" xmlns="http://www.w3.org/2000/svg" xmlns:xlink="http://www.w3.org/1999/xlink">
<g transform="translate(.5 .5)">
<g class="Start">
<path d="M20 54v20m0 -10h20"></path>
</g>
<path d="M40 64h10"></path>
<g class="Group rule">
<path d="M50 64h0"></path>
<path d="M568.5 64h0"></path>
<rect x="50" y="36" width="518.5" height="56" rx="10" ry="10" class="group-box"></rect>
<g class="Sequence">
<path d="M50 64h10"></path>
<path d="M558.5 64h10"></path>
<path d="M233 64h10"></path>
<g class="non-terminal rule-ref">
<path d="M60 64h0"></path>
<path d="M233 64h0"></path>
<rect x="60" y="53" width="173" height="22"></rect>
<text x="146.5" y="68">EqualityExpression</text>
</g>
<g class="Choice">
<path d="M243 64h0"></path>
<path d="M558.5 64h0"></path>
<path d="M243 64a10 10 0 0 0 10 -10v0a10 10 0 0 1 10 -10"></path>
<g class="Skip">
<path d="M263 44h275.5"></path>
</g>
<path d="M538.5 44a10 10 0 0 1 10 10v0a10 10 0 0 0 10 10"></path>
<path d="M243 64h20"></path>
<g class="OneOrMore">
<path d="M263 64h0"></path>
<path d="M538.5 64h0"></path>
<path d="M273 64a10 10 0 0 0 -10 10v0a10 10 0 0 0 10 10"></path>
<g class="Skip">
<path d="M273 84h255.5"></path>
</g>
<path d="M528.5 84a10 10 0 0 0 10 -10v0a10 10 0 0 0 -10 -10"></path>
<path d="M263 64h10"></path>
<path d="M528.5 64h10"></path>
<g class="Sequence">
<path d="M273 64h0"></path>
<path d="M528.5 64h0"></path>
<path d="M335.5 64h10"></path>
<g class="terminal literal">
<path d="M273 64h0"></path>
<path d="M335.5 64h0"></path>
<rect x="273" y="53" width="62.5" height="22" rx="10" ry="10"></rect>
<text x="304.25" y="68">"and"</text>
</g>
<path d="M345.5 64h10"></path>
<g class="non-terminal rule-ref">
<path d="M355.5 64h0"></path>
<path d="M528.5 64h0"></path>
<rect x="355.5" y="53" width="173" height="22"></rect>
<text x="442" y="68">EqualityExpression</text>
</g>
</g>
</g>
<path d="M538.5 64h20"></path>
</g>
</g>
<g class="comment">
<path d="M50 28h0"></path>
<path d="M200 28h0"></path>
<text x="125" y="33" class="comment">LogicalANDExpression</text>
</g>
</g>
<path d="M568.5 64h10"></path>
<path class="End" d="M 578.5 64 h 20 m 0 -10 v 20"></path>
</g>
<style>svg {
  /*background-color: hsl(30,20%,95%);*/
  background-color: white;
}
path {
  stroke-width: 1;
  stroke: black;
  fill: rgba(0,0,0,0);
}
text {
  font: bold 14px monospace;
  text-anchor: middle;
  white-space: pre;
}
text.diagram-text {
  font-size: 12px;
}
text.diagram-arrow {
  font-size: 16px;
}
text.label {
  text-anchor: start;
}
text.comment {
  font: italic 12px monospace;
}
g.non-terminal text {
  /*font-style: italic;*/
}
rect {
  stroke-width: 1;
  stroke: black;
  fill: rgb(241, 241, 241);
}
rect.group-box {
  stroke: gray;
  stroke-dasharray: 3 3;
  fill: none;
}
path.diagram-text {
  stroke-width: 3;
  stroke: black;
  fill: white;
  cursor: help;
}
.decision path {
  fill: #ccc;
}
g.diagram-text:hover path.diagram-text {
  fill: #eee;
}
text.repeat-text {
  font: italic 12px monospace;
  text-anchor: end;
}
.repeat-box > rect.group-box {
  stroke: gray;
  stroke-width: 2;
  stroke-dasharray: 1 5;
  fill: none;
}
.delimiter > rect.group-box {
  stroke: gray;
  stroke-width: 2;
  stroke-dasharray: 1 5;
  fill: none;
}
</style>
</svg>
