<svg class="railroad-diagram" width="236" height="184" viewBox="0 0 236 184" xmlns="http://www.w3.org/2000/svg" xmlns:xlink="http://www.w3.org/1999/xlink">
<g transform="translate(.5 .5)">
<g class="Start">
<path d="M20 45v20m0 -10h20"></path>
</g>
<path d="M40 55h10"></path>
<g class="Group rule">
<path d="M50 55h0"></path>
<path d="M186 55h0"></path>
<rect x="50" y="36" width="136" height="128" rx="10" ry="10" class="group-box"></rect>
<g class="Choice">
<path d="M50 55h21"></path>
<path d="M165 55h21"></path>
<path d="M71 55h20"></path>
<g class="terminal literal">
<path d="M91 55h0"></path>
<path d="M145 55h0"></path>
<rect x="91" y="44" width="54" height="22" rx="10" ry="10"></rect>
<text x="118" y="59">"&#60;="</text>
</g>
<path d="M145 55h20"></path>
<path d="M71 55a10 10 0 0 1 10 10v10a10 10 0 0 0 10 10"></path>
<g class="terminal literal">
<path d="M91 85h0"></path>
<path d="M145 85h0"></path>
<rect x="91" y="74" width="54" height="22" rx="10" ry="10"></rect>
<text x="118" y="89">">="</text>
</g>
<path d="M145 85a10 10 0 0 0 10 -10v-10a10 10 0 0 1 10 -10"></path>
<path d="M71 55a10 10 0 0 1 10 10v40a10 10 0 0 0 10 10"></path>
<g class="terminal literal">
<path d="M91 115h4.25"></path>
<path d="M140.75 115h4.25"></path>
<rect x="95.25" y="104" width="45.5" height="22" rx="10" ry="10"></rect>
<text x="118" y="119">"&#60;"</text>
</g>
<path d="M145 115a10 10 0 0 0 10 -10v-40a10 10 0 0 1 10 -10"></path>
<path d="M71 55a10 10 0 0 1 10 10v70a10 10 0 0 0 10 10"></path>
<g class="terminal literal">
<path d="M91 145h4.25"></path>
<path d="M140.75 145h4.25"></path>
<rect x="95.25" y="134" width="45.5" height="22" rx="10" ry="10"></rect>
<text x="118" y="149">">"</text>
</g>
<path d="M145 145a10 10 0 0 0 10 -10v-70a10 10 0 0 1 10 -10"></path>
</g>
<g class="comment">
<path d="M50 28h0"></path>
<path d="M186 28h0"></path>
<text x="118" y="33" class="comment">RelationalOperator</text>
</g>
</g>
<path d="M186 55h10"></path>
<path class="End" d="M 196 55 h 20 m 0 -10 v 20"></path>
</g>
<style>svg {
  /*background-color: hsl(30,20%,95%);*/
  background-color: white;
}
path {
  stroke-width: 1;
  stroke: black;
  fill: rgba(0,0,0,0);
}
text {
  font: bold 14px monospace;
  text-anchor: middle;
  white-space: pre;
}
text.diagram-text {
  font-size: 12px;
}
text.diagram-arrow {
  font-size: 16px;
}
text.label {
  text-anchor: start;
}
text.comment {
  font: italic 12px monospace;
}
g.non-terminal text {
  /*font-style: italic;*/
}
rect {
  stroke-width: 1;
  stroke: black;
  fill: rgb(241, 241, 241);
}
rect.group-box {
  stroke: gray;
  stroke-dasharray: 3 3;
  fill: none;
}
path.diagram-text {
  stroke-width: 3;
  stroke: black;
  fill: white;
  cursor: help;
}
.decision path {
  fill: #ccc;
}
g.diagram-text:hover path.diagram-text {
  fill: #eee;
}
text.repeat-text {
  font: italic 12px monospace;
  text-anchor: end;
}
.repeat-box > rect.group-box {
  stroke: gray;
  stroke-width: 2;
  stroke-dasharray: 1 5;
  fill: none;
}
.delimiter > rect.group-box {
  stroke: gray;
  stroke-width: 2;
  stroke-dasharray: 1 5;
  fill: none;
}
</style>
</svg>
