<svg class="railroad-diagram" width="558" height="627" viewBox="0 0 558 627" xmlns="http://www.w3.org/2000/svg" xmlns:xlink="http://www.w3.org/1999/xlink">
<g transform="translate(.5 .5)">
<g class="Start">
<path d="M20 78v20m0 -10h20"></path>
</g>
<path d="M40 88h10"></path>
<g class="Group rule">
<path d="M50 88h0"></path>
<path d="M508 88h0"></path>
<rect x="50" y="36" width="458" height="571" rx="10" ry="10" class="group-box"></rect>
<g class="Choice">
<path d="M50 88h0"></path>
<path d="M508 88h0"></path>
<path d="M50 88h20"></path>
<g class="Group rule">
<path d="M70 88h0"></path>
<path d="M488 88h0"></path>
<rect x="70" y="60" width="418" height="47" rx="10" ry="10" class="group-box"></rect>
<g class="Sequence">
<path d="M70 88h10"></path>
<path d="M478 88h10"></path>
<path d="M185 88h10"></path>
<g class="non-terminal rule-ref">
<path d="M80 88h0"></path>
<path d="M185 88h0"></path>
<rect x="80" y="77" width="105" height="22"></rect>
<text x="132.5" y="92">Identifier</text>
</g>
<path d="M195 88h10"></path>
<path d="M250.5 88h10"></path>
<g class="terminal literal">
<path d="M205 88h0"></path>
<path d="M250.5 88h0"></path>
<rect x="205" y="77" width="45.5" height="22" rx="10" ry="10"></rect>
<text x="227.75" y="92">"("</text>
</g>
<g class="Choice">
<path d="M260.5 88h0"></path>
<path d="M422.5 88h0"></path>
<path d="M260.5 88a10 10 0 0 0 10 -10v0a10 10 0 0 1 10 -10"></path>
<g class="Skip">
<path d="M280.5 68h122"></path>
</g>
<path d="M402.5 68a10 10 0 0 1 10 10v0a10 10 0 0 0 10 10"></path>
<path d="M260.5 88h20"></path>
<g class="non-terminal rule-ref">
<path d="M280.5 88h0"></path>
<path d="M402.5 88h0"></path>
<rect x="280.5" y="77" width="122" height="22"></rect>
<text x="341.5" y="92">ArgumentList</text>
</g>
<path d="M402.5 88h20"></path>
</g>
<path d="M422.5 88h10"></path>
<g class="terminal literal">
<path d="M432.5 88h0"></path>
<path d="M478 88h0"></path>
<rect x="432.5" y="77" width="45.5" height="22" rx="10" ry="10"></rect>
<text x="455.25" y="92">")"</text>
</g>
</g>
<g class="comment">
<path d="M70 52h0"></path>
<path d="M192 52h0"></path>
<text x="131" y="57" class="comment">StepFunctionCall</text>
</g>
</g>
<path d="M488 88h20"></path>
<path d="M50 88a10 10 0 0 1 10 10v42a10 10 0 0 0 10 10"></path>
<g class="Group rule">
<path d="M70 150h77"></path>
<path d="M411 150h77"></path>
<rect x="147" y="131" width="264" height="98" rx="10" ry="10" class="group-box"></rect>
<g class="Choice">
<path d="M147 150h0"></path>
<path d="M411 150h0"></path>
<path d="M147 150h20"></path>
<g class="non-terminal rule-ref">
<path d="M167 150h59.5"></path>
<path d="M331.5 150h59.5"></path>
<rect x="226.5" y="139" width="105" height="22"></rect>
<text x="279" y="154">Identifier</text>
</g>
<path d="M391 150h20"></path>
<path d="M147 150a10 10 0 0 1 10 10v10a10 10 0 0 0 10 10"></path>
<g class="non-terminal rule-ref">
<path d="M167 180h46.75"></path>
<path d="M344.25 180h46.75"></path>
<rect x="213.75" y="169" width="130.5" height="22"></rect>
<text x="279" y="184">StringLiteral</text>
</g>
<path d="M391 180a10 10 0 0 0 10 -10v-10a10 10 0 0 1 10 -10"></path>
<path d="M147 150a10 10 0 0 1 10 10v40a10 10 0 0 0 10 10"></path>
<g class="non-terminal rule-ref">
<path d="M167 210h0"></path>
<path d="M391 210h0"></path>
<rect x="167" y="199" width="224" height="22"></rect>
<text x="279" y="214">RegularExpressionLiteral</text>
</g>
<path d="M391 210a10 10 0 0 0 10 -10v-40a10 10 0 0 1 10 -10"></path>
</g>
<g class="comment">
<path d="M147 123h0"></path>
<path d="M213 123h0"></path>
<text x="180" y="128" class="comment">Property</text>
</g>
</g>
<path d="M488 150a10 10 0 0 0 10 -10v-42a10 10 0 0 1 10 -10"></path>
<path d="M50 88a10 10 0 0 1 10 10v164a10 10 0 0 0 10 10"></path>
<g class="Group rule">
<path d="M70 272h176"></path>
<path d="M312 272h176"></path>
<rect x="246" y="253" width="66" height="38" rx="10" ry="10" class="group-box"></rect>
<g class="terminal literal">
<path d="M246 272h10.25"></path>
<path d="M301.75 272h10.25"></path>
<rect x="256.25" y="261" width="45.5" height="22" rx="10" ry="10"></rect>
<text x="279" y="276">"*"</text>
</g>
<g class="comment">
<path d="M246 245h0"></path>
<path d="M312 245h0"></path>
<text x="279" y="250" class="comment">Children</text>
</g>
</g>
<path d="M488 272a10 10 0 0 0 10 -10v-164a10 10 0 0 1 10 -10"></path>
<path d="M50 88a10 10 0 0 1 10 10v226a10 10 0 0 0 10 10"></path>
<g class="Sequence">
<path d="M70 334h42.75"></path>
<path d="M445.25 334h42.75"></path>
<path d="M158.25 334h10"></path>
<g class="terminal literal">
<path d="M112.75 334h0"></path>
<path d="M158.25 334h0"></path>
<rect x="112.75" y="323" width="45.5" height="22" rx="10" ry="10"></rect>
<text x="135.5" y="338">"("</text>
</g>
<path d="M168.25 334h10"></path>
<path d="M379.75 334h10"></path>
<g class="Group rule">
<path d="M178.25 334h0"></path>
<path d="M379.75 334h0"></path>
<rect x="178.25" y="315" width="201.5" height="38" rx="10" ry="10" class="group-box"></rect>
<g class="non-terminal rule-ref">
<path d="M178.25 334h10"></path>
<path d="M369.75 334h10"></path>
<rect x="188.25" y="323" width="181.5" height="22"></rect>
<text x="279" y="338">SequencedExpression</text>
</g>
<g class="comment">
<path d="M178.25 307h0"></path>
<path d="M258.25 307h0"></path>
<text x="218.25" y="312" class="comment">Expression</text>
</g>
</g>
<path d="M389.75 334h10"></path>
<g class="terminal literal">
<path d="M399.75 334h0"></path>
<path d="M445.25 334h0"></path>
<rect x="399.75" y="323" width="45.5" height="22" rx="10" ry="10"></rect>
<text x="422.5" y="338">")"</text>
</g>
</g>
<path d="M488 334a10 10 0 0 0 10 -10v-226a10 10 0 0 1 10 -10"></path>
<path d="M50 88a10 10 0 0 1 10 10v288a10 10 0 0 0 10 10"></path>
<g class="Group rule">
<path d="M70 396h153.5"></path>
<path d="M334.5 396h153.5"></path>
<rect x="223.5" y="377" width="111" height="68" rx="10" ry="10" class="group-box"></rect>
<g class="Choice">
<path d="M223.5 396h0"></path>
<path d="M334.5 396h0"></path>
<path d="M223.5 396h20"></path>
<g class="terminal literal">
<path d="M243.5 396h0"></path>
<path d="M314.5 396h0"></path>
<rect x="243.5" y="385" width="71" height="22" rx="10" ry="10"></rect>
<text x="279" y="400">"self"</text>
</g>
<path d="M314.5 396h20"></path>
<path d="M223.5 396a10 10 0 0 1 10 10v10a10 10 0 0 0 10 10"></path>
<g class="terminal literal">
<path d="M243.5 426h12.75"></path>
<path d="M301.75 426h12.75"></path>
<rect x="256.25" y="415" width="45.5" height="22" rx="10" ry="10"></rect>
<text x="279" y="430">"_"</text>
</g>
<path d="M314.5 426a10 10 0 0 0 10 -10v-10a10 10 0 0 1 10 -10"></path>
</g>
<g class="comment">
<path d="M223.5 369h0"></path>
<path d="M261.5 369h0"></path>
<text x="242.5" y="374" class="comment">Self</text>
</g>
</g>
<path d="M488 396a10 10 0 0 0 10 -10v-288a10 10 0 0 1 10 -10"></path>
<path d="M50 88a10 10 0 0 1 10 10v380a10 10 0 0 0 10 10"></path>
<g class="Group rule">
<path d="M70 488h123.75"></path>
<path d="M364.25 488h123.75"></path>
<rect x="193.75" y="469" width="170.5" height="68" rx="10" ry="10" class="group-box"></rect>
<g class="Choice">
<path d="M193.75 488h0"></path>
<path d="M364.25 488h0"></path>
<path d="M193.75 488h20"></path>
<g class="non-terminal rule-ref">
<path d="M213.75 488h0"></path>
<path d="M344.25 488h0"></path>
<rect x="213.75" y="477" width="130.5" height="22"></rect>
<text x="279" y="492">ObjectLiteral</text>
</g>
<path d="M344.25 488h20"></path>
<path d="M193.75 488a10 10 0 0 1 10 10v10a10 10 0 0 0 10 10"></path>
<g class="non-terminal rule-ref">
<path d="M213.75 518h4.25"></path>
<path d="M340 518h4.25"></path>
<rect x="218" y="507" width="122" height="22"></rect>
<text x="279" y="522">ArrayLiteral</text>
</g>
<path d="M344.25 518a10 10 0 0 0 10 -10v-10a10 10 0 0 1 10 -10"></path>
</g>
<g class="comment">
<path d="M193.75 461h0"></path>
<path d="M287.75 461h0"></path>
<text x="240.75" y="466" class="comment">Construction</text>
</g>
</g>
<path d="M488 488a10 10 0 0 0 10 -10v-380a10 10 0 0 1 10 -10"></path>
<path d="M50 88a10 10 0 0 1 10 10v472a10 10 0 0 0 10 10"></path>
<g class="Group rule">
<path d="M70 580h105.25"></path>
<path d="M382.75 580h105.25"></path>
<rect x="175.25" y="561" width="207.5" height="38" rx="10" ry="10" class="group-box"></rect>
<g class="Sequence">
<path d="M175.25 580h10"></path>
<path d="M372.75 580h10"></path>
<path d="M230.75 580h10"></path>
<g class="terminal literal">
<path d="M185.25 580h0"></path>
<path d="M230.75 580h0"></path>
<rect x="185.25" y="569" width="45.5" height="22" rx="10" ry="10"></rect>
<text x="208" y="584">"="</text>
</g>
<path d="M240.75 580h10"></path>
<g class="non-terminal rule-ref">
<path d="M250.75 580h0"></path>
<path d="M372.75 580h0"></path>
<rect x="250.75" y="569" width="122" height="22"></rect>
<text x="311.75" y="584">Construction</text>
</g>
</g>
<g class="comment">
<path d="M175.25 553h0"></path>
<path d="M269.25 553h0"></path>
<text x="222.25" y="558" class="comment">Modification</text>
</g>
</g>
<path d="M488 580a10 10 0 0 0 10 -10v-472a10 10 0 0 1 10 -10"></path>
</g>
<g class="comment">
<path d="M50 28h0"></path>
<path d="M123 28h0"></path>
<text x="86.5" y="33" class="comment">BasicStep</text>
</g>
</g>
<path d="M508 88h10"></path>
<path class="End" d="M 518 88 h 20 m 0 -10 v 20"></path>
</g>
<style>.ruleId {
  color: black;
  font-weight: bold;
}

.mainRule {}

.subRule {}

.subRuleAnchor {
  /* font-weight: bolder; */
  /* fill: green; */
  /* font-size: 110%;
  font-style: normal */
}

.parent {
  font-family: Verdana, Arial, Helvetica, sans-serif;
  font-size: 14px;
}

/* , .railroad-diagram */
.svg {
  display: flex;
  align-items: center;
  justify-content: center;
}

.test {
  background-color: lightgoldenrodyellow;
}


/* --------------------------------- svg styles ---------------------------------------- */

/* tspan {
  fill: blue
} */

svg.railroad-diagram {
  /*background-color: hsl(30,20%,95%);*/
  background-color: white;
}

.railroad-diagram path {
  stroke-width: 1;
  stroke: black;
  fill: rgba(0, 0, 0, 0);
}

text {
  font: bold 14px monospace;
  text-anchor: middle;
  white-space: pre;
}

text.diagram-text {
  font-size: 12px;
}

text.diagram-arrow {
  font-size: 16px;
}

text.label {
  text-anchor: start;
}

text.comment {
  font: italic 12px monospace;
}

g.non-terminal text {
  /*font-style: italic;*/
}

rect {
  stroke-width: 1;
  stroke: black;
  fill: rgb(241, 241, 241);
}

rect.group-box {
  stroke: gray;
  stroke-dasharray: 3 3;
  fill: none;
}

path.diagram-text {
  stroke-width: 3;
  stroke: black;
  fill: white;
  cursor: help;
}

.decision path {
  fill: #ccc;
}

g.diagram-text:hover path.diagram-text {
  fill: #eee;
}

text.repeat-text {
  font: italic 12px monospace;
  text-anchor: end;
}

.repeat-box>rect.group-box {
  stroke: gray;
  stroke-width: 2;
  stroke-dasharray: 1 5;
  fill: none;
}

.delimiter>rect.group-box {
  stroke: gray;
  stroke-width: 2;
  stroke-dasharray: 1 5;
  fill: none;
}</style>
</svg>
