<svg class="railroad-diagram" width="558" height="657" viewBox="0 0 558 657" xmlns="http://www.w3.org/2000/svg" xmlns:xlink="http://www.w3.org/1999/xlink">
<g transform="translate(.5 .5)">
<g class="Start">
<path d="M20 78v20m0 -10h20"></path>
</g>
<path d="M40 88h10"></path>
<g class="Group rule">
<path d="M50 88h0"></path>
<path d="M508 88h0"></path>
<rect x="50" y="36" width="458" height="601" rx="10" ry="10" class="group-box"></rect>
<g class="Choice">
<path d="M50 88h0"></path>
<path d="M508 88h0"></path>
<path d="M50 88h20"></path>
<g class="Group rule">
<path d="M70 88h0"></path>
<path d="M488 88h0"></path>
<rect x="70" y="60" width="418" height="47" rx="10" ry="10" class="group-box"></rect>
<g class="Sequence">
<path d="M70 88h10"></path>
<path d="M478 88h10"></path>
<path d="M185 88h10"></path>
<g class="non-terminal rule-ref">
<path d="M80 88h0"></path>
<path d="M185 88h0"></path>
<rect x="80" y="77" width="105" height="22"></rect>
<text x="132.5" y="92">Identifier</text>
</g>
<path d="M195 88h10"></path>
<path d="M250.5 88h10"></path>
<g class="terminal literal">
<path d="M205 88h0"></path>
<path d="M250.5 88h0"></path>
<rect x="205" y="77" width="45.5" height="22" rx="10" ry="10"></rect>
<text x="227.75" y="92">"("</text>
</g>
<g class="Choice">
<path d="M260.5 88h0"></path>
<path d="M422.5 88h0"></path>
<path d="M260.5 88a10 10 0 0 0 10 -10v0a10 10 0 0 1 10 -10"></path>
<g class="Skip">
<path d="M280.5 68h122"></path>
</g>
<path d="M402.5 68a10 10 0 0 1 10 10v0a10 10 0 0 0 10 10"></path>
<path d="M260.5 88h20"></path>
<g class="non-terminal rule-ref">
<path d="M280.5 88h0"></path>
<path d="M402.5 88h0"></path>
<rect x="280.5" y="77" width="122" height="22"></rect>
<text x="341.5" y="92">ArgumentList</text>
</g>
<path d="M402.5 88h20"></path>
</g>
<path d="M422.5 88h10"></path>
<g class="terminal literal">
<path d="M432.5 88h0"></path>
<path d="M478 88h0"></path>
<rect x="432.5" y="77" width="45.5" height="22" rx="10" ry="10"></rect>
<text x="455.25" y="92">")"</text>
</g>
</g>
<g class="comment">
<path d="M70 52h0"></path>
<path d="M192 52h0"></path>
<text x="131" y="57" class="comment">StepFunctionCall</text>
</g>
</g>
<path d="M488 88h20"></path>
<path d="M50 88a10 10 0 0 1 10 10v42a10 10 0 0 0 10 10"></path>
<g class="Group rule">
<path d="M70 150h25.5"></path>
<path d="M462.5 150h25.5"></path>
<rect x="95.5" y="131" width="367" height="128" rx="10" ry="10" class="group-box"></rect>
<g class="Choice">
<path d="M95.5 150h0"></path>
<path d="M462.5 150h0"></path>
<path d="M95.5 150h20"></path>
<g class="non-terminal rule-ref">
<path d="M115.5 150h111"></path>
<path d="M331.5 150h111"></path>
<rect x="226.5" y="139" width="105" height="22"></rect>
<text x="279" y="154">Identifier</text>
</g>
<path d="M442.5 150h20"></path>
<path d="M95.5 150a10 10 0 0 1 10 10v10a10 10 0 0 0 10 10"></path>
<g class="non-terminal rule-ref">
<path d="M115.5 180h106.75"></path>
<path d="M335.75 180h106.75"></path>
<rect x="222.25" y="169" width="113.5" height="22"></rect>
<text x="279" y="184">NameLiteral</text>
</g>
<path d="M442.5 180a10 10 0 0 0 10 -10v-10a10 10 0 0 1 10 -10"></path>
<path d="M95.5 150a10 10 0 0 1 10 10v40a10 10 0 0 0 10 10"></path>
<g class="non-terminal rule-ref">
<path d="M115.5 210h51.5"></path>
<path d="M391 210h51.5"></path>
<rect x="167" y="199" width="224" height="22"></rect>
<text x="279" y="214">RegularExpressionLiteral</text>
</g>
<path d="M442.5 210a10 10 0 0 0 10 -10v-40a10 10 0 0 1 10 -10"></path>
<path d="M95.5 150a10 10 0 0 1 10 10v70a10 10 0 0 0 10 10"></path>
<g class="Sequence">
<path d="M115.5 240h0"></path>
<path d="M442.5 240h0"></path>
<path d="M186.5 240h10"></path>
<g class="terminal literal">
<path d="M115.5 240h0"></path>
<path d="M186.5 240h0"></path>
<rect x="115.5" y="229" width="71" height="22" rx="10" ry="10"></rect>
<text x="151" y="244">"prop"</text>
</g>
<path d="M196.5 240h10"></path>
<path d="M252 240h10"></path>
<g class="terminal literal">
<path d="M206.5 240h0"></path>
<path d="M252 240h0"></path>
<rect x="206.5" y="229" width="45.5" height="22" rx="10" ry="10"></rect>
<text x="229.25" y="244">"("</text>
</g>
<path d="M262 240h10"></path>
<path d="M377 240h10"></path>
<g class="non-terminal rule-ref">
<path d="M272 240h0"></path>
<path d="M377 240h0"></path>
<rect x="272" y="229" width="105" height="22"></rect>
<text x="324.5" y="244">Expression</text>
</g>
<path d="M387 240h10"></path>
<g class="terminal literal">
<path d="M397 240h0"></path>
<path d="M442.5 240h0"></path>
<rect x="397" y="229" width="45.5" height="22" rx="10" ry="10"></rect>
<text x="419.75" y="244">")"</text>
</g>
</g>
<path d="M442.5 240a10 10 0 0 0 10 -10v-70a10 10 0 0 1 10 -10"></path>
</g>
<g class="comment">
<path d="M95.5 123h0"></path>
<path d="M161.5 123h0"></path>
<text x="128.5" y="128" class="comment">Property</text>
</g>
</g>
<path d="M488 150a10 10 0 0 0 10 -10v-42a10 10 0 0 1 10 -10"></path>
<path d="M50 88a10 10 0 0 1 10 10v194a10 10 0 0 0 10 10"></path>
<g class="Group rule">
<path d="M70 302h176"></path>
<path d="M312 302h176"></path>
<rect x="246" y="283" width="66" height="38" rx="10" ry="10" class="group-box"></rect>
<g class="terminal literal">
<path d="M246 302h10.25"></path>
<path d="M301.75 302h10.25"></path>
<rect x="256.25" y="291" width="45.5" height="22" rx="10" ry="10"></rect>
<text x="279" y="306">"*"</text>
</g>
<g class="comment">
<path d="M246 275h0"></path>
<path d="M312 275h0"></path>
<text x="279" y="280" class="comment">Children</text>
</g>
</g>
<path d="M488 302a10 10 0 0 0 10 -10v-194a10 10 0 0 1 10 -10"></path>
<path d="M50 88a10 10 0 0 1 10 10v256a10 10 0 0 0 10 10"></path>
<g class="Sequence">
<path d="M70 364h59.75"></path>
<path d="M428.25 364h59.75"></path>
<path d="M175.25 364h10"></path>
<g class="terminal literal">
<path d="M129.75 364h0"></path>
<path d="M175.25 364h0"></path>
<rect x="129.75" y="353" width="45.5" height="22" rx="10" ry="10"></rect>
<text x="152.5" y="368">"("</text>
</g>
<path d="M185.25 364h10"></path>
<path d="M362.75 364h10"></path>
<g class="Group rule">
<path d="M195.25 364h0"></path>
<path d="M362.75 364h0"></path>
<rect x="195.25" y="345" width="167.5" height="38" rx="10" ry="10" class="group-box"></rect>
<g class="non-terminal rule-ref">
<path d="M195.25 364h10"></path>
<path d="M352.75 364h10"></path>
<rect x="205.25" y="353" width="147.5" height="22"></rect>
<text x="279" y="368">ScopeExpression</text>
</g>
<g class="comment">
<path d="M195.25 337h0"></path>
<path d="M275.25 337h0"></path>
<text x="235.25" y="342" class="comment">Expression</text>
</g>
</g>
<path d="M372.75 364h10"></path>
<g class="terminal literal">
<path d="M382.75 364h0"></path>
<path d="M428.25 364h0"></path>
<rect x="382.75" y="353" width="45.5" height="22" rx="10" ry="10"></rect>
<text x="405.5" y="368">")"</text>
</g>
</g>
<path d="M488 364a10 10 0 0 0 10 -10v-256a10 10 0 0 1 10 -10"></path>
<path d="M50 88a10 10 0 0 1 10 10v318a10 10 0 0 0 10 10"></path>
<g class="Group rule">
<path d="M70 426h153.5"></path>
<path d="M334.5 426h153.5"></path>
<rect x="223.5" y="407" width="111" height="68" rx="10" ry="10" class="group-box"></rect>
<g class="Choice">
<path d="M223.5 426h0"></path>
<path d="M334.5 426h0"></path>
<path d="M223.5 426h20"></path>
<g class="terminal literal">
<path d="M243.5 426h0"></path>
<path d="M314.5 426h0"></path>
<rect x="243.5" y="415" width="71" height="22" rx="10" ry="10"></rect>
<text x="279" y="430">"self"</text>
</g>
<path d="M314.5 426h20"></path>
<path d="M223.5 426a10 10 0 0 1 10 10v10a10 10 0 0 0 10 10"></path>
<g class="terminal literal">
<path d="M243.5 456h12.75"></path>
<path d="M301.75 456h12.75"></path>
<rect x="256.25" y="445" width="45.5" height="22" rx="10" ry="10"></rect>
<text x="279" y="460">"_"</text>
</g>
<path d="M314.5 456a10 10 0 0 0 10 -10v-10a10 10 0 0 1 10 -10"></path>
</g>
<g class="comment">
<path d="M223.5 399h0"></path>
<path d="M261.5 399h0"></path>
<text x="242.5" y="404" class="comment">Self</text>
</g>
</g>
<path d="M488 426a10 10 0 0 0 10 -10v-318a10 10 0 0 1 10 -10"></path>
<path d="M50 88a10 10 0 0 1 10 10v410a10 10 0 0 0 10 10"></path>
<g class="Group rule">
<path d="M70 518h102.5"></path>
<path d="M385.5 518h102.5"></path>
<rect x="172.5" y="499" width="213" height="68" rx="10" ry="10" class="group-box"></rect>
<g class="Choice">
<path d="M172.5 518h0"></path>
<path d="M385.5 518h0"></path>
<path d="M172.5 518h20"></path>
<g class="non-terminal rule-ref">
<path d="M192.5 518h0"></path>
<path d="M365.5 518h0"></path>
<rect x="192.5" y="507" width="173" height="22"></rect>
<text x="279" y="522">ObjectConstruction</text>
</g>
<path d="M365.5 518h20"></path>
<path d="M172.5 518a10 10 0 0 1 10 10v10a10 10 0 0 0 10 10"></path>
<g class="non-terminal rule-ref">
<path d="M192.5 548h4.25"></path>
<path d="M361.25 548h4.25"></path>
<rect x="196.75" y="537" width="164.5" height="22"></rect>
<text x="279" y="552">ArrayConstruction</text>
</g>
<path d="M365.5 548a10 10 0 0 0 10 -10v-10a10 10 0 0 1 10 -10"></path>
</g>
<g class="comment">
<path d="M172.5 491h0"></path>
<path d="M266.5 491h0"></path>
<text x="219.5" y="496" class="comment">Construction</text>
</g>
</g>
<path d="M488 518a10 10 0 0 0 10 -10v-410a10 10 0 0 1 10 -10"></path>
<path d="M50 88a10 10 0 0 1 10 10v502a10 10 0 0 0 10 10"></path>
<g class="Group rule">
<path d="M70 610h113.75"></path>
<path d="M374.25 610h113.75"></path>
<rect x="183.75" y="591" width="190.5" height="38" rx="10" ry="10" class="group-box"></rect>
<g class="Sequence">
<path d="M183.75 610h10"></path>
<path d="M364.25 610h10"></path>
<path d="M239.25 610h10"></path>
<g class="terminal literal">
<path d="M193.75 610h0"></path>
<path d="M239.25 610h0"></path>
<rect x="193.75" y="599" width="45.5" height="22" rx="10" ry="10"></rect>
<text x="216.5" y="614">"$"</text>
</g>
<path d="M249.25 610h10"></path>
<g class="non-terminal rule-ref">
<path d="M259.25 610h0"></path>
<path d="M364.25 610h0"></path>
<rect x="259.25" y="599" width="105" height="22"></rect>
<text x="311.75" y="614">Identifier</text>
</g>
</g>
<g class="comment">
<path d="M183.75 583h0"></path>
<path d="M312.75 583h0"></path>
<text x="248.25" y="588" class="comment">VariableReference</text>
</g>
</g>
<path d="M488 610a10 10 0 0 0 10 -10v-502a10 10 0 0 1 10 -10"></path>
</g>
<g class="comment">
<path d="M50 28h0"></path>
<path d="M123 28h0"></path>
<text x="86.5" y="33" class="comment">BasicStep</text>
</g>
</g>
<path d="M508 88h10"></path>
<path class="End" d="M 518 88 h 20 m 0 -10 v 20"></path>
</g>
<style>.ruleId {
  color: black;
  font-weight: bold;
}

.mainRule {}

.subRule {}

.subRuleAnchor {
  /* font-weight: bolder; */
  /* fill: green; */
  /* font-size: 110%;
  font-style: normal */
}

.parent {
  font-family: Verdana, Arial, Helvetica, sans-serif;
  font-size: 14px;
}

/* , .railroad-diagram */
.svg {
  display: flex;
  align-items: center;
  justify-content: center;
}

.test {
  background-color: lightgoldenrodyellow;
}


/* --------------------------------- svg styles ---------------------------------------- */

/* tspan {
  fill: blue
} */

svg.railroad-diagram {
  /*background-color: hsl(30,20%,95%);*/
  background-color: white;
}

.railroad-diagram path {
  stroke-width: 1;
  stroke: black;
  fill: rgba(0, 0, 0, 0);
}

text {
  font: bold 12px monospace;
  text-anchor: middle;
  white-space: pre;
}

text.diagram-text {
  font-size: 12px;
}

text.diagram-arrow {
  font-size: 14px;
}

text.label {
  text-anchor: start;
}

text.comment {
  font: italic 12px monospace;
}

g.non-terminal text {
  /*font-style: italic;*/
}

rect {
  stroke-width: 1;
  stroke: black;
  fill: rgb(241, 241, 241);
}

rect.group-box {
  stroke: gray;
  stroke-dasharray: 3 3;
  fill: none;
}

path.diagram-text {
  stroke-width: 3;
  stroke: black;
  fill: white;
  cursor: help;
}

.decision path {
  fill: #ccc;
}

g.diagram-text:hover path.diagram-text {
  fill: #eee;
}

text.repeat-text {
  font: italic 12px monospace;
  text-anchor: end;
}

.repeat-box>rect.group-box {
  stroke: gray;
  stroke-width: 2;
  stroke-dasharray: 1 5;
  fill: none;
}

.delimiter>rect.group-box {
  stroke: gray;
  stroke-width: 2;
  stroke-dasharray: 1 5;
  fill: none;
}</style>
</svg>
