<svg class="railroad-diagram" width="730" height="133" viewBox="0 0 730 133" xmlns="http://www.w3.org/2000/svg" xmlns:xlink="http://www.w3.org/1999/xlink">
<g transform="translate(.5 .5)">
<g class="Start">
<path d="M20 54v20m0 -10h20"></path>
</g>
<path d="M40 64h10"></path>
<g class="Group rule">
<path d="M50 64h0"></path>
<path d="M680 64h0"></path>
<rect x="50" y="36" width="630" height="77" rx="10" ry="10" class="group-box"></rect>
<g class="Choice">
<path d="M50 64h0"></path>
<path d="M680 64h0"></path>
<path d="M50 64h20"></path>
<g class="Sequence">
<path d="M70 64h0"></path>
<path d="M660 64h0"></path>
<path d="M124 64h10"></path>
<g class="terminal literal">
<path d="M70 64h0"></path>
<path d="M124 64h0"></path>
<rect x="70" y="53" width="54" height="22" rx="10" ry="10"></rect>
<text x="97" y="68">"if"</text>
</g>
<path d="M134 64h10"></path>
<path d="M189.5 64h10"></path>
<g class="terminal literal">
<path d="M144 64h0"></path>
<path d="M189.5 64h0"></path>
<rect x="144" y="53" width="45.5" height="22" rx="10" ry="10"></rect>
<text x="166.75" y="68">"("</text>
</g>
<path d="M199.5 64h10"></path>
<path d="M314.5 64h10"></path>
<g class="non-terminal rule-ref">
<path d="M209.5 64h0"></path>
<path d="M314.5 64h0"></path>
<rect x="209.5" y="53" width="105" height="22"></rect>
<text x="262" y="68">Expression</text>
</g>
<path d="M324.5 64h10"></path>
<path d="M380 64h10"></path>
<g class="terminal literal">
<path d="M334.5 64h0"></path>
<path d="M380 64h0"></path>
<rect x="334.5" y="53" width="45.5" height="22" rx="10" ry="10"></rect>
<text x="357.25" y="68">")"</text>
</g>
<path d="M390 64h10"></path>
<path d="M505 64h10"></path>
<g class="non-terminal rule-ref">
<path d="M400 64h0"></path>
<path d="M505 64h0"></path>
<rect x="400" y="53" width="105" height="22"></rect>
<text x="452.5" y="68">Expression</text>
</g>
<g class="Choice">
<path d="M515 64h0"></path>
<path d="M660 64h0"></path>
<path d="M515 64a10 10 0 0 0 10 -10v0a10 10 0 0 1 10 -10"></path>
<g class="Skip">
<path d="M535 44h105"></path>
</g>
<path d="M640 44a10 10 0 0 1 10 10v0a10 10 0 0 0 10 10"></path>
<path d="M515 64h20"></path>
<g class="non-terminal rule-ref">
<path d="M535 64h0"></path>
<path d="M640 64h0"></path>
<rect x="535" y="53" width="105" height="22"></rect>
<text x="587.5" y="68">Expression</text>
</g>
<path d="M640 64h20"></path>
</g>
</g>
<path d="M660 64h20"></path>
<path d="M50 64a10 10 0 0 1 10 10v10a10 10 0 0 0 10 10"></path>
<g class="non-terminal rule-ref">
<path d="M70 94h204.25"></path>
<path d="M455.75 94h204.25"></path>
<rect x="274.25" y="83" width="181.5" height="22"></rect>
<text x="365" y="98">LogicalORExpression</text>
</g>
<path d="M660 94a10 10 0 0 0 10 -10v-10a10 10 0 0 1 10 -10"></path>
</g>
<g class="comment">
<path d="M50 28h0"></path>
<path d="M137 28h0"></path>
<text x="93.5" y="33" class="comment">Conditional</text>
</g>
</g>
<path d="M680 64h10"></path>
<path class="End" d="M 690 64 h 20 m 0 -10 v 20"></path>
</g>
<style>.ruleId {
  color: black;
  font-weight: bold;
}

.mainRule {}

.subRule {}

.subRuleAnchor {
  /* font-weight: bolder; */
  /* fill: green; */
  /* font-size: 110%;
  font-style: normal */
}

.parent {
  font-family: Verdana, Arial, Helvetica, sans-serif;
  font-size: 14px;
}

/* , .railroad-diagram */
.svg {
  display: flex;
  align-items: center;
  justify-content: center;
}

.test {
  background-color: lightgoldenrodyellow;
}


/* --------------------------------- svg styles ---------------------------------------- */

/* tspan {
  fill: blue
} */

svg.railroad-diagram {
  /*background-color: hsl(30,20%,95%);*/
  background-color: white;
}

.railroad-diagram path {
  stroke-width: 1;
  stroke: black;
  fill: rgba(0, 0, 0, 0);
}

text {
  font: bold 14px monospace;
  text-anchor: middle;
  white-space: pre;
}

text.diagram-text {
  font-size: 12px;
}

text.diagram-arrow {
  font-size: 16px;
}

text.label {
  text-anchor: start;
}

text.comment {
  font: italic 12px monospace;
}

g.non-terminal text {
  /*font-style: italic;*/
}

rect {
  stroke-width: 1;
  stroke: black;
  fill: rgb(241, 241, 241);
}

rect.group-box {
  stroke: gray;
  stroke-dasharray: 3 3;
  fill: none;
}

path.diagram-text {
  stroke-width: 3;
  stroke: black;
  fill: white;
  cursor: help;
}

.decision path {
  fill: #ccc;
}

g.diagram-text:hover path.diagram-text {
  fill: #eee;
}

text.repeat-text {
  font: italic 12px monospace;
  text-anchor: end;
}

.repeat-box>rect.group-box {
  stroke: gray;
  stroke-width: 2;
  stroke-dasharray: 1 5;
  fill: none;
}

.delimiter>rect.group-box {
  stroke: gray;
  stroke-width: 2;
  stroke-dasharray: 1 5;
  fill: none;
}</style>
</svg>
