<svg class="railroad-diagram" width="846" height="103" viewBox="0 0 846 103" xmlns="http://www.w3.org/2000/svg" xmlns:xlink="http://www.w3.org/1999/xlink">
<g transform="translate(.5 .5)">
<g class="Start">
<path d="M20 54v20m0 -10h20"></path>
</g>
<path d="M40 64h10"></path>
<g class="Group rule">
<path d="M50 64h0"></path>
<path d="M796 64h0"></path>
<rect x="50" y="36" width="746" height="47" rx="10" ry="10" class="group-box"></rect>
<g class="Sequence">
<path d="M50 64h10"></path>
<path d="M786 64h10"></path>
<path d="M114 64h10"></path>
<g class="terminal literal">
<path d="M60 64h0"></path>
<path d="M114 64h0"></path>
<rect x="60" y="53" width="54" height="22" rx="10" ry="10"></rect>
<text x="87" y="68">"if"</text>
</g>
<path d="M124 64h10"></path>
<path d="M179.5 64h10"></path>
<g class="terminal literal">
<path d="M134 64h0"></path>
<path d="M179.5 64h0"></path>
<rect x="134" y="53" width="45.5" height="22" rx="10" ry="10"></rect>
<text x="156.75" y="68">"("</text>
</g>
<path d="M189.5 64h10"></path>
<path d="M304.5 64h10"></path>
<g class="non-terminal rule-ref">
<path d="M199.5 64h0"></path>
<path d="M304.5 64h0"></path>
<rect x="199.5" y="53" width="105" height="22"></rect>
<text x="252" y="68">Expression</text>
</g>
<path d="M314.5 64h10"></path>
<path d="M370 64h10"></path>
<g class="terminal literal">
<path d="M324.5 64h0"></path>
<path d="M370 64h0"></path>
<rect x="324.5" y="53" width="45.5" height="22" rx="10" ry="10"></rect>
<text x="347.25" y="68">")"</text>
</g>
<path d="M380 64h10"></path>
<path d="M563 64h10"></path>
<g class="non-terminal rule-ref">
<path d="M390 64h0"></path>
<path d="M563 64h0"></path>
<rect x="390" y="53" width="173" height="22"></rect>
<text x="476.5" y="68">OrdinaryExpression</text>
</g>
<g class="Choice">
<path d="M573 64h0"></path>
<path d="M786 64h0"></path>
<path d="M573 64a10 10 0 0 0 10 -10v0a10 10 0 0 1 10 -10"></path>
<g class="Skip">
<path d="M593 44h173"></path>
</g>
<path d="M766 44a10 10 0 0 1 10 10v0a10 10 0 0 0 10 10"></path>
<path d="M573 64h20"></path>
<g class="non-terminal rule-ref">
<path d="M593 64h0"></path>
<path d="M766 64h0"></path>
<rect x="593" y="53" width="173" height="22"></rect>
<text x="679.5" y="68">OrdinaryExpression</text>
</g>
<path d="M766 64h20"></path>
</g>
</g>
<g class="comment">
<path d="M50 28h0"></path>
<path d="M207 28h0"></path>
<text x="128.5" y="33" class="comment">ConditionalExpression</text>
</g>
</g>
<path d="M796 64h10"></path>
<path class="End" d="M 806 64 h 20 m 0 -10 v 20"></path>
</g>
<style>.ruleId {
  color: black;
  font-weight: bold;
}

.mainRule {}

.subRule {}

.subRuleAnchor {
  /* font-weight: bolder; */
  /* fill: green; */
  /* font-size: 110%;
  font-style: normal */
}

.parent {
  font-family: Verdana, Arial, Helvetica, sans-serif;
  font-size: 14px;
}

/* , .railroad-diagram */
.svg {
  display: flex;
  align-items: center;
  justify-content: center;
}

.test {
  background-color: lightgoldenrodyellow;
}


/* --------------------------------- svg styles ---------------------------------------- */

/* tspan {
  fill: blue
} */

svg.railroad-diagram {
  /*background-color: hsl(30,20%,95%);*/
  background-color: white;
}

.railroad-diagram path {
  stroke-width: 1;
  stroke: black;
  fill: rgba(0, 0, 0, 0);
}

text {
  font: bold 12px monospace;
  text-anchor: middle;
  white-space: pre;
}

text.diagram-text {
  font-size: 12px;
}

text.diagram-arrow {
  font-size: 14px;
}

text.label {
  text-anchor: start;
}

text.comment {
  font: italic 12px monospace;
}

g.non-terminal text {
  /*font-style: italic;*/
}

rect {
  stroke-width: 1;
  stroke: black;
  fill: rgb(241, 241, 241);
}

rect.group-box {
  stroke: gray;
  stroke-dasharray: 3 3;
  fill: none;
}

path.diagram-text {
  stroke-width: 3;
  stroke: black;
  fill: white;
  cursor: help;
}

.decision path {
  fill: #ccc;
}

g.diagram-text:hover path.diagram-text {
  fill: #eee;
}

text.repeat-text {
  font: italic 12px monospace;
  text-anchor: end;
}

.repeat-box>rect.group-box {
  stroke: gray;
  stroke-width: 2;
  stroke-dasharray: 1 5;
  fill: none;
}

.delimiter>rect.group-box {
  stroke: gray;
  stroke-width: 2;
  stroke-dasharray: 1 5;
  fill: none;
}</style>
</svg>
