<svg class="railroad-diagram" width="518" height="206" viewBox="0 0 518 206" xmlns="http://www.w3.org/2000/svg" xmlns:xlink="http://www.w3.org/1999/xlink">
<g transform="translate(.5 .5)">
<g class="Start">
<path d="M20 78v20m0 -10h20"></path>
</g>
<path d="M40 88h10"></path>
<g class="Group rule">
<path d="M50 88h0"></path>
<path d="M468 88h0"></path>
<rect x="50" y="36" width="418" height="150" rx="10" ry="10" class="group-box"></rect>
<g class="Choice">
<path d="M50 88h0"></path>
<path d="M468 88h0"></path>
<path d="M50 88h20"></path>
<g class="Group rule">
<path d="M70 88h0"></path>
<path d="M448 88h0"></path>
<rect x="70" y="60" width="378" height="47" rx="10" ry="10" class="group-box"></rect>
<g class="Sequence">
<path d="M70 88h10"></path>
<path d="M438 88h10"></path>
<path d="M125.5 88h10"></path>
<g class="terminal literal">
<path d="M80 88h0"></path>
<path d="M125.5 88h0"></path>
<rect x="80" y="77" width="45.5" height="22" rx="10" ry="10"></rect>
<text x="102.75" y="92">"{"</text>
</g>
<g class="Choice">
<path d="M135.5 88h0"></path>
<path d="M382.5 88h0"></path>
<path d="M135.5 88a10 10 0 0 0 10 -10v0a10 10 0 0 1 10 -10"></path>
<g class="Skip">
<path d="M155.5 68h207"></path>
</g>
<path d="M362.5 68a10 10 0 0 1 10 10v0a10 10 0 0 0 10 10"></path>
<path d="M135.5 88h20"></path>
<g class="non-terminal rule-ref">
<path d="M155.5 88h0"></path>
<path d="M362.5 88h0"></path>
<rect x="155.5" y="77" width="207" height="22"></rect>
<text x="259" y="92">PropertyAssignmentList</text>
</g>
<path d="M362.5 88h20"></path>
</g>
<path d="M382.5 88h10"></path>
<g class="terminal literal">
<path d="M392.5 88h0"></path>
<path d="M438 88h0"></path>
<rect x="392.5" y="77" width="45.5" height="22" rx="10" ry="10"></rect>
<text x="415.25" y="92">"}"</text>
</g>
</g>
<g class="comment">
<path d="M70 52h0"></path>
<path d="M206 52h0"></path>
<text x="138" y="57" class="comment">ObjectConstruction</text>
</g>
</g>
<path d="M448 88h20"></path>
<path d="M50 88a10 10 0 0 1 10 10v51a10 10 0 0 0 10 10"></path>
<g class="Group rule">
<path d="M70 159h46.75"></path>
<path d="M401.25 159h46.75"></path>
<rect x="116.75" y="131" width="284.5" height="47" rx="10" ry="10" class="group-box"></rect>
<g class="Sequence">
<path d="M116.75 159h10"></path>
<path d="M391.25 159h10"></path>
<path d="M172.25 159h10"></path>
<g class="terminal literal">
<path d="M126.75 159h0"></path>
<path d="M172.25 159h0"></path>
<rect x="126.75" y="148" width="45.5" height="22" rx="10" ry="10"></rect>
<text x="149.5" y="163">"&#91;"</text>
</g>
<g class="Choice">
<path d="M182.25 159h0"></path>
<path d="M335.75 159h0"></path>
<path d="M182.25 159a10 10 0 0 0 10 -10v0a10 10 0 0 1 10 -10"></path>
<g class="Skip">
<path d="M202.25 139h113.5"></path>
</g>
<path d="M315.75 139a10 10 0 0 1 10 10v0a10 10 0 0 0 10 10"></path>
<path d="M182.25 159h20"></path>
<g class="non-terminal rule-ref">
<path d="M202.25 159h0"></path>
<path d="M315.75 159h0"></path>
<rect x="202.25" y="148" width="113.5" height="22"></rect>
<text x="259" y="163">ElementList</text>
</g>
<path d="M315.75 159h20"></path>
</g>
<path d="M335.75 159h10"></path>
<g class="terminal literal">
<path d="M345.75 159h0"></path>
<path d="M391.25 159h0"></path>
<rect x="345.75" y="148" width="45.5" height="22" rx="10" ry="10"></rect>
<text x="368.5" y="163">"&#93;"</text>
</g>
</g>
<g class="comment">
<path d="M116.75 123h0"></path>
<path d="M245.75 123h0"></path>
<text x="181.25" y="128" class="comment">ArrayConstruction</text>
</g>
</g>
<path d="M448 159a10 10 0 0 0 10 -10v-51a10 10 0 0 1 10 -10"></path>
</g>
<g class="comment">
<path d="M50 28h0"></path>
<path d="M144 28h0"></path>
<text x="97" y="33" class="comment">Construction</text>
</g>
</g>
<path d="M468 88h10"></path>
<path class="End" d="M 478 88 h 20 m 0 -10 v 20"></path>
</g>
<style>.ruleId {
  color: black;
  font-weight: bold;
}

.mainRule {}

.subRule {}

.subRuleAnchor {
  /* font-weight: bolder; */
  /* fill: green; */
  /* font-size: 110%;
  font-style: normal */
}

.parent {
  font-family: Verdana, Arial, Helvetica, sans-serif;
  font-size: 14px;
}

/* , .railroad-diagram */
.svg {
  display: flex;
  align-items: center;
  justify-content: center;
}

.test {
  background-color: lightgoldenrodyellow;
}


/* --------------------------------- svg styles ---------------------------------------- */

/* tspan {
  fill: blue
} */

svg.railroad-diagram {
  /*background-color: hsl(30,20%,95%);*/
  background-color: white;
}

.railroad-diagram path {
  stroke-width: 1;
  stroke: black;
  fill: rgba(0, 0, 0, 0);
}

text {
  font: bold 12px monospace;
  text-anchor: middle;
  white-space: pre;
}

text.diagram-text {
  font-size: 12px;
}

text.diagram-arrow {
  font-size: 14px;
}

text.label {
  text-anchor: start;
}

text.comment {
  font: italic 12px monospace;
}

g.non-terminal text {
  /*font-style: italic;*/
}

rect {
  stroke-width: 1;
  stroke: black;
  fill: rgb(241, 241, 241);
}

rect.group-box {
  stroke: gray;
  stroke-dasharray: 3 3;
  fill: none;
}

path.diagram-text {
  stroke-width: 3;
  stroke: black;
  fill: white;
  cursor: help;
}

.decision path {
  fill: #ccc;
}

g.diagram-text:hover path.diagram-text {
  fill: #eee;
}

text.repeat-text {
  font: italic 12px monospace;
  text-anchor: end;
}

.repeat-box>rect.group-box {
  stroke: gray;
  stroke-width: 2;
  stroke-dasharray: 1 5;
  fill: none;
}

.delimiter>rect.group-box {
  stroke: gray;
  stroke-width: 2;
  stroke-dasharray: 1 5;
  fill: none;
}</style>
</svg>
