<svg class="railroad-diagram" width="684" height="206" viewBox="0 0 684 206" xmlns="http://www.w3.org/2000/svg" xmlns:xlink="http://www.w3.org/1999/xlink">
<g transform="translate(.5 .5)">
<g class="Start">
<path d="M20 69v20m0 -10h20"></path>
</g>
<path d="M40 79h10"></path>
<g class="Group rule">
<path d="M50 79h0"></path>
<path d="M634 79h0"></path>
<rect x="50" y="36" width="584" height="150" rx="10" ry="10" class="group-box"></rect>
<g class="Choice">
<path d="M50 79h0"></path>
<path d="M634 79h0"></path>
<path d="M50 79h20"></path>
<g class="Group rule">
<path d="M70 79h162.75"></path>
<path d="M451.25 79h162.75"></path>
<rect x="232.75" y="60" width="218.5" height="38" rx="10" ry="10" class="group-box"></rect>
<g class="non-terminal rule-ref">
<path d="M232.75 79h10"></path>
<path d="M441.25 79h10"></path>
<rect x="242.75" y="68" width="198.5" height="22"></rect>
<text x="342" y="83">ConditionalExpression</text>
</g>
<g class="comment">
<path d="M232.75 52h0"></path>
<path d="M361.75 52h0"></path>
<text x="297.25" y="57" class="comment">ControlExpression</text>
</g>
</g>
<path d="M614 79h20"></path>
<path d="M50 79a10 10 0 0 1 10 10v51a10 10 0 0 0 10 10"></path>
<g class="Group rule">
<path d="M70 150h0"></path>
<path d="M614 150h0"></path>
<rect x="70" y="122" width="544" height="56" rx="10" ry="10" class="group-box"></rect>
<g class="Sequence">
<path d="M70 150h10"></path>
<path d="M604 150h10"></path>
<path d="M270 150h10"></path>
<g class="non-terminal rule-ref">
<path d="M80 150h0"></path>
<path d="M270 150h0"></path>
<rect x="80" y="139" width="190" height="22"></rect>
<text x="175" y="154">LogicalANDExpression</text>
</g>
<g class="Choice">
<path d="M280 150h0"></path>
<path d="M604 150h0"></path>
<path d="M280 150a10 10 0 0 0 10 -10v0a10 10 0 0 1 10 -10"></path>
<g class="Skip">
<path d="M300 130h284"></path>
</g>
<path d="M584 130a10 10 0 0 1 10 10v0a10 10 0 0 0 10 10"></path>
<path d="M280 150h20"></path>
<g class="OneOrMore">
<path d="M300 150h0"></path>
<path d="M584 150h0"></path>
<path d="M310 150a10 10 0 0 0 -10 10v0a10 10 0 0 0 10 10"></path>
<g class="Skip">
<path d="M310 170h264"></path>
</g>
<path d="M574 170a10 10 0 0 0 10 -10v0a10 10 0 0 0 -10 -10"></path>
<path d="M300 150h10"></path>
<path d="M574 150h10"></path>
<g class="Sequence">
<path d="M310 150h0"></path>
<path d="M574 150h0"></path>
<path d="M364 150h10"></path>
<g class="terminal literal">
<path d="M310 150h0"></path>
<path d="M364 150h0"></path>
<rect x="310" y="139" width="54" height="22" rx="10" ry="10"></rect>
<text x="337" y="154">"or"</text>
</g>
<path d="M374 150h10"></path>
<g class="non-terminal rule-ref">
<path d="M384 150h0"></path>
<path d="M574 150h0"></path>
<rect x="384" y="139" width="190" height="22"></rect>
<text x="479" y="154">LogicalANDExpression</text>
</g>
</g>
</g>
<path d="M584 150h20"></path>
</g>
</g>
<g class="comment">
<path d="M70 114h0"></path>
<path d="M213 114h0"></path>
<text x="141.5" y="119" class="comment">LogicalORExpression</text>
</g>
</g>
<path d="M614 150a10 10 0 0 0 10 -10v-51a10 10 0 0 1 10 -10"></path>
</g>
<g class="comment">
<path d="M50 28h0"></path>
<path d="M186 28h0"></path>
<text x="118" y="33" class="comment">OrdinaryExpression</text>
</g>
</g>
<path d="M634 79h10"></path>
<path class="End" d="M 644 79 h 20 m 0 -10 v 20"></path>
</g>
<style>.ruleId {
  color: black;
  font-weight: bold;
}

.mainRule {}

.subRule {}

.subRuleAnchor {
  /* font-weight: bolder; */
  /* fill: green; */
  /* font-size: 110%;
  font-style: normal */
}

.parent {
  font-family: Verdana, Arial, Helvetica, sans-serif;
  font-size: 14px;
}

/* , .railroad-diagram */
.svg {
  display: flex;
  align-items: center;
  justify-content: center;
}

.test {
  background-color: lightgoldenrodyellow;
}


/* --------------------------------- svg styles ---------------------------------------- */

/* tspan {
  fill: blue
} */

svg.railroad-diagram {
  /*background-color: hsl(30,20%,95%);*/
  background-color: white;
}

.railroad-diagram path {
  stroke-width: 1;
  stroke: black;
  fill: rgba(0, 0, 0, 0);
}

text {
  font: bold 12px monospace;
  text-anchor: middle;
  white-space: pre;
}

text.diagram-text {
  font-size: 12px;
}

text.diagram-arrow {
  font-size: 14px;
}

text.label {
  text-anchor: start;
}

text.comment {
  font: italic 12px monospace;
}

g.non-terminal text {
  /*font-style: italic;*/
}

rect {
  stroke-width: 1;
  stroke: black;
  fill: rgb(241, 241, 241);
}

rect.group-box {
  stroke: gray;
  stroke-dasharray: 3 3;
  fill: none;
}

path.diagram-text {
  stroke-width: 3;
  stroke: black;
  fill: white;
  cursor: help;
}

.decision path {
  fill: #ccc;
}

g.diagram-text:hover path.diagram-text {
  fill: #eee;
}

text.repeat-text {
  font: italic 12px monospace;
  text-anchor: end;
}

.repeat-box>rect.group-box {
  stroke: gray;
  stroke-width: 2;
  stroke-dasharray: 1 5;
  fill: none;
}

.delimiter>rect.group-box {
  stroke: gray;
  stroke-width: 2;
  stroke-dasharray: 1 5;
  fill: none;
}</style>
</svg>
