<svg class="railroad-diagram" width="750" height="165" viewBox="0 0 750 165" xmlns="http://www.w3.org/2000/svg" xmlns:xlink="http://www.w3.org/1999/xlink">
<g transform="translate(.5 .5)">
<g class="Start">
<path d="M20 78v20m0 -10h20"></path>
</g>
<path d="M40 88h10"></path>
<g class="Group rule">
<path d="M50 88h0"></path>
<path d="M700 88h0"></path>
<rect x="50" y="36" width="650" height="109" rx="10" ry="10" class="group-box"></rect>
<g class="Group rule">
<path d="M50 88h10"></path>
<path d="M690 88h10"></path>
<rect x="60" y="60" width="630" height="77" rx="10" ry="10" class="group-box"></rect>
<g class="Choice">
<path d="M60 88h0"></path>
<path d="M690 88h0"></path>
<path d="M60 88h20"></path>
<g class="Sequence">
<path d="M80 88h0"></path>
<path d="M670 88h0"></path>
<path d="M134 88h10"></path>
<g class="terminal literal">
<path d="M80 88h0"></path>
<path d="M134 88h0"></path>
<rect x="80" y="77" width="54" height="22" rx="10" ry="10"></rect>
<text x="107" y="92">"if"</text>
</g>
<path d="M144 88h10"></path>
<path d="M199.5 88h10"></path>
<g class="terminal literal">
<path d="M154 88h0"></path>
<path d="M199.5 88h0"></path>
<rect x="154" y="77" width="45.5" height="22" rx="10" ry="10"></rect>
<text x="176.75" y="92">"("</text>
</g>
<path d="M209.5 88h10"></path>
<path d="M324.5 88h10"></path>
<g class="non-terminal rule-ref">
<path d="M219.5 88h0"></path>
<path d="M324.5 88h0"></path>
<rect x="219.5" y="77" width="105" height="22"></rect>
<text x="272" y="92">Expression</text>
</g>
<path d="M334.5 88h10"></path>
<path d="M390 88h10"></path>
<g class="terminal literal">
<path d="M344.5 88h0"></path>
<path d="M390 88h0"></path>
<rect x="344.5" y="77" width="45.5" height="22" rx="10" ry="10"></rect>
<text x="367.25" y="92">")"</text>
</g>
<path d="M400 88h10"></path>
<path d="M515 88h10"></path>
<g class="non-terminal rule-ref">
<path d="M410 88h0"></path>
<path d="M515 88h0"></path>
<rect x="410" y="77" width="105" height="22"></rect>
<text x="462.5" y="92">Expression</text>
</g>
<g class="Choice">
<path d="M525 88h0"></path>
<path d="M670 88h0"></path>
<path d="M525 88a10 10 0 0 0 10 -10v0a10 10 0 0 1 10 -10"></path>
<g class="Skip">
<path d="M545 68h105"></path>
</g>
<path d="M650 68a10 10 0 0 1 10 10v0a10 10 0 0 0 10 10"></path>
<path d="M525 88h20"></path>
<g class="non-terminal rule-ref">
<path d="M545 88h0"></path>
<path d="M650 88h0"></path>
<rect x="545" y="77" width="105" height="22"></rect>
<text x="597.5" y="92">Expression</text>
</g>
<path d="M650 88h20"></path>
</g>
</g>
<path d="M670 88h20"></path>
<path d="M60 88a10 10 0 0 1 10 10v10a10 10 0 0 0 10 10"></path>
<g class="non-terminal rule-ref">
<path d="M80 118h204.25"></path>
<path d="M465.75 118h204.25"></path>
<rect x="284.25" y="107" width="181.5" height="22"></rect>
<text x="375" y="122">LogicalORExpression</text>
</g>
<path d="M670 118a10 10 0 0 0 10 -10v-10a10 10 0 0 1 10 -10"></path>
</g>
<g class="comment">
<path d="M60 52h0"></path>
<path d="M217 52h0"></path>
<text x="138.5" y="57" class="comment">ConditionalExpression</text>
</g>
</g>
<g class="comment">
<path d="M50 28h0"></path>
<path d="M186 28h0"></path>
<text x="118" y="33" class="comment">OrdinaryExpression</text>
</g>
</g>
<path d="M700 88h10"></path>
<path class="End" d="M 710 88 h 20 m 0 -10 v 20"></path>
</g>
<style>.ruleId {
  color: black;
  font-weight: bold;
}

.mainRule {}

.subRule {}

.subRuleAnchor {
  /* font-weight: bolder; */
  /* fill: green; */
  /* font-size: 110%;
  font-style: normal */
}

.parent {
  font-family: Verdana, Arial, Helvetica, sans-serif;
  font-size: 14px;
}

/* , .railroad-diagram */
.svg {
  display: flex;
  align-items: center;
  justify-content: center;
}

.test {
  background-color: lightgoldenrodyellow;
}


/* --------------------------------- svg styles ---------------------------------------- */

/* tspan {
  fill: blue
} */

svg.railroad-diagram {
  /*background-color: hsl(30,20%,95%);*/
  background-color: white;
}

.railroad-diagram path {
  stroke-width: 1;
  stroke: black;
  fill: rgba(0, 0, 0, 0);
}

text {
  font: bold 12px monospace;
  text-anchor: middle;
  white-space: pre;
}

text.diagram-text {
  font-size: 12px;
}

text.diagram-arrow {
  font-size: 14px;
}

text.label {
  text-anchor: start;
}

text.comment {
  font: italic 12px monospace;
}

g.non-terminal text {
  /*font-style: italic;*/
}

rect {
  stroke-width: 1;
  stroke: black;
  fill: rgb(241, 241, 241);
}

rect.group-box {
  stroke: gray;
  stroke-dasharray: 3 3;
  fill: none;
}

path.diagram-text {
  stroke-width: 3;
  stroke: black;
  fill: white;
  cursor: help;
}

.decision path {
  fill: #ccc;
}

g.diagram-text:hover path.diagram-text {
  fill: #eee;
}

text.repeat-text {
  font: italic 12px monospace;
  text-anchor: end;
}

.repeat-box>rect.group-box {
  stroke: gray;
  stroke-width: 2;
  stroke-dasharray: 1 5;
  fill: none;
}

.delimiter>rect.group-box {
  stroke: gray;
  stroke-width: 2;
  stroke-dasharray: 1 5;
  fill: none;
}</style>
</svg>
