<svg class="railroad-diagram" width="954" height="215" viewBox="0 0 954 215" xmlns="http://www.w3.org/2000/svg" xmlns:xlink="http://www.w3.org/1999/xlink">
<g transform="translate(.5 .5)">
<g class="Start">
<path d="M20 78v20m0 -10h20"></path>
</g>
<path d="M40 88h10"></path>
<g class="Group rule">
<path d="M50 88h0"></path>
<path d="M904 88h0"></path>
<rect x="50" y="36" width="854" height="159" rx="10" ry="10" class="group-box"></rect>
<g class="Choice">
<path d="M50 88h0"></path>
<path d="M904 88h0"></path>
<path d="M50 88h20"></path>
<g class="Group rule">
<path d="M70 88h0"></path>
<path d="M884 88h0"></path>
<rect x="70" y="60" width="814" height="47" rx="10" ry="10" class="group-box"></rect>
<g class="Sequence">
<path d="M70 88h10"></path>
<path d="M874 88h10"></path>
<path d="M134 88h10"></path>
<g class="terminal literal">
<path d="M80 88h0"></path>
<path d="M134 88h0"></path>
<rect x="80" y="77" width="54" height="22" rx="10" ry="10"></rect>
<text x="107" y="92">"if"</text>
</g>
<path d="M144 88h10"></path>
<path d="M199.5 88h10"></path>
<g class="terminal literal">
<path d="M154 88h0"></path>
<path d="M199.5 88h0"></path>
<rect x="154" y="77" width="45.5" height="22" rx="10" ry="10"></rect>
<text x="176.75" y="92">"("</text>
</g>
<path d="M209.5 88h10"></path>
<path d="M392.5 88h10"></path>
<g class="non-terminal rule-ref">
<path d="M219.5 88h0"></path>
<path d="M392.5 88h0"></path>
<rect x="219.5" y="77" width="173" height="22"></rect>
<text x="306" y="92">OrdinaryExpression</text>
</g>
<path d="M402.5 88h10"></path>
<path d="M458 88h10"></path>
<g class="terminal literal">
<path d="M412.5 88h0"></path>
<path d="M458 88h0"></path>
<rect x="412.5" y="77" width="45.5" height="22" rx="10" ry="10"></rect>
<text x="435.25" y="92">")"</text>
</g>
<path d="M468 88h10"></path>
<path d="M651 88h10"></path>
<g class="non-terminal rule-ref">
<path d="M478 88h0"></path>
<path d="M651 88h0"></path>
<rect x="478" y="77" width="173" height="22"></rect>
<text x="564.5" y="92">OrdinaryExpression</text>
</g>
<g class="Choice">
<path d="M661 88h0"></path>
<path d="M874 88h0"></path>
<path d="M661 88a10 10 0 0 0 10 -10v0a10 10 0 0 1 10 -10"></path>
<g class="Skip">
<path d="M681 68h173"></path>
</g>
<path d="M854 68a10 10 0 0 1 10 10v0a10 10 0 0 0 10 10"></path>
<path d="M661 88h20"></path>
<g class="non-terminal rule-ref">
<path d="M681 88h0"></path>
<path d="M854 88h0"></path>
<rect x="681" y="77" width="173" height="22"></rect>
<text x="767.5" y="92">OrdinaryExpression</text>
</g>
<path d="M854 88h20"></path>
</g>
</g>
<g class="comment">
<path d="M70 52h0"></path>
<path d="M227 52h0"></path>
<text x="148.5" y="57" class="comment">ConditionalExpression</text>
</g>
</g>
<path d="M884 88h20"></path>
<path d="M50 88a10 10 0 0 1 10 10v51a10 10 0 0 0 10 10"></path>
<g class="Group rule">
<path d="M70 159h135"></path>
<path d="M749 159h135"></path>
<rect x="205" y="131" width="544" height="56" rx="10" ry="10" class="group-box"></rect>
<g class="Sequence">
<path d="M205 159h10"></path>
<path d="M739 159h10"></path>
<path d="M405 159h10"></path>
<g class="non-terminal rule-ref">
<path d="M215 159h0"></path>
<path d="M405 159h0"></path>
<rect x="215" y="148" width="190" height="22"></rect>
<text x="310" y="163">LogicalANDExpression</text>
</g>
<g class="Choice">
<path d="M415 159h0"></path>
<path d="M739 159h0"></path>
<path d="M415 159a10 10 0 0 0 10 -10v0a10 10 0 0 1 10 -10"></path>
<g class="Skip">
<path d="M435 139h284"></path>
</g>
<path d="M719 139a10 10 0 0 1 10 10v0a10 10 0 0 0 10 10"></path>
<path d="M415 159h20"></path>
<g class="OneOrMore">
<path d="M435 159h0"></path>
<path d="M719 159h0"></path>
<path d="M445 159a10 10 0 0 0 -10 10v0a10 10 0 0 0 10 10"></path>
<g class="Skip">
<path d="M445 179h264"></path>
</g>
<path d="M709 179a10 10 0 0 0 10 -10v0a10 10 0 0 0 -10 -10"></path>
<path d="M435 159h10"></path>
<path d="M709 159h10"></path>
<g class="Sequence">
<path d="M445 159h0"></path>
<path d="M709 159h0"></path>
<path d="M499 159h10"></path>
<g class="terminal literal">
<path d="M445 159h0"></path>
<path d="M499 159h0"></path>
<rect x="445" y="148" width="54" height="22" rx="10" ry="10"></rect>
<text x="472" y="163">"or"</text>
</g>
<path d="M509 159h10"></path>
<g class="non-terminal rule-ref">
<path d="M519 159h0"></path>
<path d="M709 159h0"></path>
<rect x="519" y="148" width="190" height="22"></rect>
<text x="614" y="163">LogicalANDExpression</text>
</g>
</g>
</g>
<path d="M719 159h20"></path>
</g>
</g>
<g class="comment">
<path d="M205 123h0"></path>
<path d="M348 123h0"></path>
<text x="276.5" y="128" class="comment">LogicalORExpression</text>
</g>
</g>
<path d="M884 159a10 10 0 0 0 10 -10v-51a10 10 0 0 1 10 -10"></path>
</g>
<g class="comment">
<path d="M50 28h0"></path>
<path d="M186 28h0"></path>
<text x="118" y="33" class="comment">OrdinaryExpression</text>
</g>
</g>
<path d="M904 88h10"></path>
<path class="End" d="M 914 88 h 20 m 0 -10 v 20"></path>
</g>
<style>.ruleId {
  color: black;
  font-weight: bold;
}

.mainRule {}

.subRule {}

.subRuleAnchor {
  /* font-weight: bolder; */
  /* fill: green; */
  /* font-size: 110%;
  font-style: normal */
}

.parent {
  font-family: Verdana, Arial, Helvetica, sans-serif;
  font-size: 14px;
}

/* , .railroad-diagram */
.svg {
  display: flex;
  align-items: center;
  justify-content: center;
}

.test {
  background-color: lightgoldenrodyellow;
}


/* --------------------------------- svg styles ---------------------------------------- */

/* tspan {
  fill: blue
} */

svg.railroad-diagram {
  /*background-color: hsl(30,20%,95%);*/
  background-color: white;
}

.railroad-diagram path {
  stroke-width: 1;
  stroke: black;
  fill: rgba(0, 0, 0, 0);
}

text {
  font: bold 12px monospace;
  text-anchor: middle;
  white-space: pre;
}

text.diagram-text {
  font-size: 12px;
}

text.diagram-arrow {
  font-size: 14px;
}

text.label {
  text-anchor: start;
}

text.comment {
  font: italic 12px monospace;
}

g.non-terminal text {
  /*font-style: italic;*/
}

rect {
  stroke-width: 1;
  stroke: black;
  fill: rgb(241, 241, 241);
}

rect.group-box {
  stroke: gray;
  stroke-dasharray: 3 3;
  fill: none;
}

path.diagram-text {
  stroke-width: 3;
  stroke: black;
  fill: white;
  cursor: help;
}

.decision path {
  fill: #ccc;
}

g.diagram-text:hover path.diagram-text {
  fill: #eee;
}

text.repeat-text {
  font: italic 12px monospace;
  text-anchor: end;
}

.repeat-box>rect.group-box {
  stroke: gray;
  stroke-width: 2;
  stroke-dasharray: 1 5;
  fill: none;
}

.delimiter>rect.group-box {
  stroke: gray;
  stroke-width: 2;
  stroke-dasharray: 1 5;
  fill: none;
}</style>
</svg>
