<svg class="railroad-diagram" width="403.5" height="296" viewBox="0 0 403.5 296" xmlns="http://www.w3.org/2000/svg" xmlns:xlink="http://www.w3.org/1999/xlink">
<g transform="translate(.5 .5)">
<g class="Start">
<path d="M20 69v20m0 -10h20"></path>
</g>
<path d="M40 79h10"></path>
<g class="Group rule">
<path d="M50 79h0"></path>
<path d="M353.5 79h0"></path>
<rect x="50" y="36" width="303.5" height="240" rx="10" ry="10" class="group-box"></rect>
<g class="Choice">
<path d="M50 79h0"></path>
<path d="M353.5 79h0"></path>
<path d="M50 79h20"></path>
<g class="Group rule">
<path d="M70 79h42.25"></path>
<path d="M291.25 79h42.25"></path>
<rect x="112.25" y="60" width="179" height="128" rx="10" ry="10" class="group-box"></rect>
<g class="Choice">
<path d="M112.25 79h0"></path>
<path d="M291.25 79h0"></path>
<path d="M112.25 79h20"></path>
<g class="non-terminal rule-ref">
<path d="M132.25 79h0"></path>
<path d="M271.25 79h0"></path>
<rect x="132.25" y="68" width="139" height="22"></rect>
<text x="201.75" y="83">BooleanLiteral</text>
</g>
<path d="M271.25 79h20"></path>
<path d="M112.25 79a10 10 0 0 1 10 10v10a10 10 0 0 0 10 10"></path>
<g class="non-terminal rule-ref">
<path d="M132.25 109h0"></path>
<path d="M271.25 109h0"></path>
<rect x="132.25" y="98" width="139" height="22"></rect>
<text x="201.75" y="113">NumericLiteral</text>
</g>
<path d="M271.25 109a10 10 0 0 0 10 -10v-10a10 10 0 0 1 10 -10"></path>
<path d="M112.25 79a10 10 0 0 1 10 10v40a10 10 0 0 0 10 10"></path>
<g class="non-terminal rule-ref">
<path d="M132.25 139h4.25"></path>
<path d="M267 139h4.25"></path>
<rect x="136.5" y="128" width="130.5" height="22"></rect>
<text x="201.75" y="143">StringLiteral</text>
</g>
<path d="M271.25 139a10 10 0 0 0 10 -10v-40a10 10 0 0 1 10 -10"></path>
<path d="M112.25 79a10 10 0 0 1 10 10v70a10 10 0 0 0 10 10"></path>
<g class="non-terminal rule-ref">
<path d="M132.25 169h12.75"></path>
<path d="M258.5 169h12.75"></path>
<rect x="145" y="158" width="113.5" height="22"></rect>
<text x="201.75" y="173">NullLiteral</text>
</g>
<path d="M271.25 169a10 10 0 0 0 10 -10v-70a10 10 0 0 1 10 -10"></path>
</g>
<g class="comment">
<path d="M112.25 52h0"></path>
<path d="M171.25 52h0"></path>
<text x="141.75" y="57" class="comment">Literal</text>
</g>
</g>
<path d="M333.5 79h20"></path>
<path d="M50 79a10 10 0 0 1 10 10v141a10 10 0 0 0 10 10"></path>
<g class="Group rule">
<path d="M70 240h0"></path>
<path d="M333.5 240h0"></path>
<rect x="70" y="212" width="263.5" height="56" rx="10" ry="10" class="group-box"></rect>
<g class="Sequence">
<path d="M70 240h10"></path>
<path d="M323.5 240h10"></path>
<path d="M134 240h10"></path>
<g class="non-terminal rule-ref">
<path d="M80 240h0"></path>
<path d="M134 240h0"></path>
<rect x="80" y="229" width="54" height="22"></rect>
<text x="107" y="244">Step</text>
</g>
<g class="Choice">
<path d="M144 240h0"></path>
<path d="M323.5 240h0"></path>
<path d="M144 240a10 10 0 0 0 10 -10v0a10 10 0 0 1 10 -10"></path>
<g class="Skip">
<path d="M164 220h139.5"></path>
</g>
<path d="M303.5 220a10 10 0 0 1 10 10v0a10 10 0 0 0 10 10"></path>
<path d="M144 240h20"></path>
<g class="OneOrMore">
<path d="M164 240h0"></path>
<path d="M303.5 240h0"></path>
<path d="M174 240a10 10 0 0 0 -10 10v0a10 10 0 0 0 10 10"></path>
<g class="Skip">
<path d="M174 260h119.5"></path>
</g>
<path d="M293.5 260a10 10 0 0 0 10 -10v0a10 10 0 0 0 -10 -10"></path>
<path d="M164 240h10"></path>
<path d="M293.5 240h10"></path>
<g class="Sequence">
<path d="M174 240h0"></path>
<path d="M293.5 240h0"></path>
<path d="M219.5 240h10"></path>
<g class="terminal literal">
<path d="M174 240h0"></path>
<path d="M219.5 240h0"></path>
<rect x="174" y="229" width="45.5" height="22" rx="10" ry="10"></rect>
<text x="196.75" y="244">"."</text>
</g>
<path d="M229.5 240h10"></path>
<g class="non-terminal rule-ref">
<path d="M239.5 240h0"></path>
<path d="M293.5 240h0"></path>
<rect x="239.5" y="229" width="54" height="22"></rect>
<text x="266.5" y="244">Step</text>
</g>
</g>
</g>
<path d="M303.5 240h20"></path>
</g>
</g>
<g class="comment">
<path d="M70 204h0"></path>
<path d="M108 204h0"></path>
<text x="89" y="209" class="comment">Path</text>
</g>
</g>
<path d="M333.5 240a10 10 0 0 0 10 -10v-141a10 10 0 0 1 10 -10"></path>
</g>
<g class="comment">
<path d="M50 28h0"></path>
<path d="M179 28h0"></path>
<text x="114.5" y="33" class="comment">PrimaryExpression</text>
</g>
</g>
<path d="M353.5 79h10"></path>
<path class="End" d="M 363.5 79 h 20 m 0 -10 v 20"></path>
</g>
<style>.ruleId {
  color: black;
  font-weight: bold;
}

.mainRule {}

.subRule {}

.subRuleAnchor {
  /* font-weight: bolder; */
  /* fill: green; */
  /* font-size: 110%;
  font-style: normal */
}

.parent {
  font-family: Verdana, Arial, Helvetica, sans-serif;
  font-size: 14px;
}

/* , .railroad-diagram */
.svg {
  display: flex;
  align-items: center;
  justify-content: center;
}

.test {
  background-color: lightgoldenrodyellow;
}


/* --------------------------------- svg styles ---------------------------------------- */

/* tspan {
  fill: blue
} */

svg.railroad-diagram {
  /*background-color: hsl(30,20%,95%);*/
  background-color: white;
}

.railroad-diagram path {
  stroke-width: 1;
  stroke: black;
  fill: rgba(0, 0, 0, 0);
}

text {
  font: bold 12px monospace;
  text-anchor: middle;
  white-space: pre;
}

text.diagram-text {
  font-size: 12px;
}

text.diagram-arrow {
  font-size: 14px;
}

text.label {
  text-anchor: start;
}

text.comment {
  font: italic 12px monospace;
}

g.non-terminal text {
  /*font-style: italic;*/
}

rect {
  stroke-width: 1;
  stroke: black;
  fill: rgb(241, 241, 241);
}

rect.group-box {
  stroke: gray;
  stroke-dasharray: 3 3;
  fill: none;
}

path.diagram-text {
  stroke-width: 3;
  stroke: black;
  fill: white;
  cursor: help;
}

.decision path {
  fill: #ccc;
}

g.diagram-text:hover path.diagram-text {
  fill: #eee;
}

text.repeat-text {
  font: italic 12px monospace;
  text-anchor: end;
}

.repeat-box>rect.group-box {
  stroke: gray;
  stroke-width: 2;
  stroke-dasharray: 1 5;
  fill: none;
}

.delimiter>rect.group-box {
  stroke: gray;
  stroke-width: 2;
  stroke-dasharray: 1 5;
  fill: none;
}</style>
</svg>
