<svg class="railroad-diagram" width="546.5" height="330" viewBox="0 0 546.5 330" xmlns="http://www.w3.org/2000/svg" xmlns:xlink="http://www.w3.org/1999/xlink">
<g transform="translate(.5 .5)">
<g class="Start">
<path d="M20 69v20m0 -10h20"></path>
</g>
<path d="M40 79h10"></path>
<g class="Group rule">
<path d="M50 79h0"></path>
<path d="M496.5 79h0"></path>
<rect x="50" y="36" width="446.5" height="274" rx="10" ry="10" class="group-box"></rect>
<g class="Choice">
<path d="M50 79h0"></path>
<path d="M496.5 79h0"></path>
<path d="M50 79h20"></path>
<g class="Group rule">
<path d="M70 79h28.5"></path>
<path d="M448 79h28.5"></path>
<rect x="98.5" y="60" width="349.5" height="38" rx="10" ry="10" class="group-box"></rect>
<g class="Sequence">
<path d="M98.5 79h10"></path>
<path d="M438 79h10"></path>
<path d="M279 79h10"></path>
<g class="Sequence">
<path d="M108.5 79h0"></path>
<path d="M279 79h0"></path>
<path d="M137 79h10"></path>
<g class="decision simple-and">
<path d="M108.5 79h0"></path>
<path d="M137 79h0"></path>
<path d="M108.5 79v5.5l5.5 5.5h17.5l5.5 -5.5v-11l-5.5 -5.5h-17.5l-5.5 5.5v5.5"></path>
<text x="122.75" y="83">!</text>
</g>
<path d="M147 79h10"></path>
<g class="non-terminal rule-ref">
<path d="M157 79h0"></path>
<path d="M279 79h0"></path>
<rect x="157" y="68" width="122" height="22"></rect>
<text x="218" y="83">ReservedWord</text>
</g>
</g>
<path d="M289 79h10"></path>
<g class="non-terminal rule-ref">
<path d="M299 79h0"></path>
<path d="M438 79h0"></path>
<rect x="299" y="68" width="139" height="22"></rect>
<text x="368.5" y="83">IdentifierName</text>
</g>
</g>
<g class="comment">
<path d="M98.5 52h0"></path>
<path d="M178.5 52h0"></path>
<text x="138.5" y="57" class="comment">Identifier</text>
</g>
</g>
<path d="M476.5 79h20"></path>
<path d="M50 79a10 10 0 0 1 10 10v51a10 10 0 0 0 10 10"></path>
<g class="Group rule">
<path d="M70 150h0"></path>
<path d="M476.5 150h0"></path>
<rect x="70" y="122" width="406.5" height="56" rx="10" ry="10" class="group-box"></rect>
<g class="Sequence">
<path d="M70 150h10"></path>
<path d="M466.5 150h10"></path>
<path d="M125.5 150h10"></path>
<g class="terminal literal">
<path d="M80 150h0"></path>
<path d="M125.5 150h0"></path>
<rect x="80" y="139" width="45.5" height="22" rx="10" ry="10"></rect>
<text x="102.75" y="154">"&#96;"</text>
</g>
<g class="Choice">
<path d="M135.5 150h0"></path>
<path d="M411 150h0"></path>
<path d="M135.5 150a10 10 0 0 0 10 -10v0a10 10 0 0 1 10 -10"></path>
<g class="Skip">
<path d="M155.5 130h235.5"></path>
</g>
<path d="M391 130a10 10 0 0 1 10 10v0a10 10 0 0 0 10 10"></path>
<path d="M135.5 150h20"></path>
<g class="OneOrMore">
<path d="M155.5 150h0"></path>
<path d="M391 150h0"></path>
<path d="M165.5 150a10 10 0 0 0 -10 10v0a10 10 0 0 0 10 10"></path>
<g class="Skip">
<path d="M165.5 170h215.5"></path>
</g>
<path d="M381 170a10 10 0 0 0 10 -10v0a10 10 0 0 0 -10 -10"></path>
<path d="M155.5 150h10"></path>
<path d="M381 150h10"></path>
<g class="non-terminal rule-ref">
<path d="M165.5 150h0"></path>
<path d="M381 150h0"></path>
<rect x="165.5" y="139" width="215.5" height="22"></rect>
<text x="273.25" y="154">BacktickStringCharacter</text>
</g>
</g>
<path d="M391 150h20"></path>
</g>
<path d="M411 150h10"></path>
<g class="terminal literal">
<path d="M421 150h0"></path>
<path d="M466.5 150h0"></path>
<rect x="421" y="139" width="45.5" height="22" rx="10" ry="10"></rect>
<text x="443.75" y="154">"&#96;"</text>
</g>
</g>
<g class="comment">
<path d="M70 114h0"></path>
<path d="M157 114h0"></path>
<text x="113.5" y="119" class="comment">NameLiteral</text>
</g>
</g>
<path d="M476.5 150a10 10 0 0 0 10 -10v-51a10 10 0 0 1 10 -10"></path>
<path d="M50 79a10 10 0 0 1 10 10v122a10 10 0 0 0 10 10"></path>
<g class="Group rule">
<path d="M70 221h28.5"></path>
<path d="M448 221h28.5"></path>
<rect x="98.5" y="202" width="349.5" height="38" rx="10" ry="10" class="group-box"></rect>
<g class="Sequence">
<path d="M98.5 221h10"></path>
<path d="M438 221h10"></path>
<path d="M154 221h10"></path>
<g class="terminal literal">
<path d="M108.5 221h0"></path>
<path d="M154 221h0"></path>
<rect x="108.5" y="210" width="45.5" height="22" rx="10" ry="10"></rect>
<text x="131.25" y="225">"/"</text>
</g>
<path d="M164 221h10"></path>
<path d="M372.5 221h10"></path>
<g class="non-terminal rule-ref">
<path d="M174 221h0"></path>
<path d="M372.5 221h0"></path>
<rect x="174" y="210" width="198.5" height="22"></rect>
<text x="273.25" y="225">RegularExpressionBody</text>
</g>
<path d="M382.5 221h10"></path>
<g class="terminal literal">
<path d="M392.5 221h0"></path>
<path d="M438 221h0"></path>
<rect x="392.5" y="210" width="45.5" height="22" rx="10" ry="10"></rect>
<text x="415.25" y="225">"/"</text>
</g>
</g>
<g class="comment">
<path d="M98.5 194h0"></path>
<path d="M276.5 194h0"></path>
<text x="187.5" y="199" class="comment">RegularExpressionLiteral</text>
</g>
</g>
<path d="M476.5 221a10 10 0 0 0 10 -10v-122a10 10 0 0 1 10 -10"></path>
<path d="M50 79a10 10 0 0 1 10 10v184a10 10 0 0 0 10 10"></path>
<g class="Sequence">
<path d="M70 283h8.5"></path>
<path d="M468 283h8.5"></path>
<path d="M149.5 283h10"></path>
<g class="terminal literal">
<path d="M78.5 283h0"></path>
<path d="M149.5 283h0"></path>
<rect x="78.5" y="272" width="71" height="22" rx="10" ry="10"></rect>
<text x="114" y="287">"prop"</text>
</g>
<path d="M159.5 283h10"></path>
<path d="M215 283h10"></path>
<g class="terminal literal">
<path d="M169.5 283h0"></path>
<path d="M215 283h0"></path>
<rect x="169.5" y="272" width="45.5" height="22" rx="10" ry="10"></rect>
<text x="192.25" y="287">"("</text>
</g>
<path d="M225 283h10"></path>
<path d="M402.5 283h10"></path>
<g class="Group rule">
<path d="M235 283h0"></path>
<path d="M402.5 283h0"></path>
<rect x="235" y="264" width="167.5" height="38" rx="10" ry="10" class="group-box"></rect>
<g class="non-terminal rule-ref">
<path d="M235 283h10"></path>
<path d="M392.5 283h10"></path>
<rect x="245" y="272" width="147.5" height="22"></rect>
<text x="318.75" y="287">ScopeExpression</text>
</g>
<g class="comment">
<path d="M235 256h0"></path>
<path d="M315 256h0"></path>
<text x="275" y="261" class="comment">Expression</text>
</g>
</g>
<path d="M412.5 283h10"></path>
<g class="terminal literal">
<path d="M422.5 283h0"></path>
<path d="M468 283h0"></path>
<rect x="422.5" y="272" width="45.5" height="22" rx="10" ry="10"></rect>
<text x="445.25" y="287">")"</text>
</g>
</g>
<path d="M476.5 283a10 10 0 0 0 10 -10v-184a10 10 0 0 1 10 -10"></path>
</g>
<g class="comment">
<path d="M50 28h0"></path>
<path d="M116 28h0"></path>
<text x="83" y="33" class="comment">Property</text>
</g>
</g>
<path d="M496.5 79h10"></path>
<path class="End" d="M 506.5 79 h 20 m 0 -10 v 20"></path>
</g>
<style>.ruleId {
  color: black;
  font-weight: bold;
}

.mainRule {}

.subRule {}

.subRuleAnchor {
  /* font-weight: bolder; */
  /* fill: green; */
  /* font-size: 110%;
  font-style: normal */
}

.parent {
  font-family: Verdana, Arial, Helvetica, sans-serif;
  font-size: 14px;
}

/* , .railroad-diagram */
.svg {
  display: flex;
  align-items: center;
  justify-content: center;
}

.test {
  background-color: lightgoldenrodyellow;
}


/* --------------------------------- svg styles ---------------------------------------- */

/* tspan {
  fill: blue
} */

svg.railroad-diagram {
  /*background-color: hsl(30,20%,95%);*/
  background-color: white;
}

.railroad-diagram path {
  stroke-width: 1;
  stroke: black;
  fill: rgba(0, 0, 0, 0);
}

text {
  font: bold 12px monospace;
  text-anchor: middle;
  white-space: pre;
}

text.diagram-text {
  font-size: 12px;
}

text.diagram-arrow {
  font-size: 14px;
}

text.label {
  text-anchor: start;
}

text.comment {
  font: italic 12px monospace;
}

g.non-terminal text {
  /*font-style: italic;*/
}

rect {
  stroke-width: 1;
  stroke: black;
  fill: rgb(241, 241, 241);
}

rect.group-box {
  stroke: gray;
  stroke-dasharray: 3 3;
  fill: none;
}

path.diagram-text {
  stroke-width: 3;
  stroke: black;
  fill: white;
  cursor: help;
}

.decision path {
  fill: #ccc;
}

g.diagram-text:hover path.diagram-text {
  fill: #eee;
}

text.repeat-text {
  font: italic 12px monospace;
  text-anchor: end;
}

.repeat-box>rect.group-box {
  stroke: gray;
  stroke-width: 2;
  stroke-dasharray: 1 5;
  fill: none;
}

.delimiter>rect.group-box {
  stroke: gray;
  stroke-width: 2;
  stroke-dasharray: 1 5;
  fill: none;
}</style>
</svg>
