<svg class="railroad-diagram" width="259.5" height="430" viewBox="0 0 259.5 430" xmlns="http://www.w3.org/2000/svg" xmlns:xlink="http://www.w3.org/1999/xlink">
<g transform="translate(.5 .5)">
<g class="Start">
<path d="M20 69v20m0 -10h20"></path>
</g>
<path d="M40 79h10"></path>
<g class="Group rule">
<path d="M50 79h0"></path>
<path d="M209.5 79h0"></path>
<rect x="50" y="36" width="159.5" height="374" rx="10" ry="10" class="group-box"></rect>
<g class="Choice">
<path d="M50 79h0"></path>
<path d="M209.5 79h0"></path>
<path d="M50 79h20"></path>
<g class="Group rule">
<path d="M70 79h4.25"></path>
<path d="M185.25 79h4.25"></path>
<rect x="74.25" y="60" width="111" height="188" rx="10" ry="10" class="group-box"></rect>
<g class="Choice">
<path d="M74.25 79h0"></path>
<path d="M185.25 79h0"></path>
<path d="M74.25 79h20"></path>
<g class="terminal literal">
<path d="M94.25 79h0"></path>
<path d="M165.25 79h0"></path>
<rect x="94.25" y="68" width="71" height="22" rx="10" ry="10"></rect>
<text x="129.75" y="83">"self"</text>
</g>
<path d="M165.25 79h20"></path>
<path d="M74.25 79a10 10 0 0 1 10 10v10a10 10 0 0 0 10 10"></path>
<g class="terminal literal">
<path d="M94.25 109h12.75"></path>
<path d="M152.5 109h12.75"></path>
<rect x="107" y="98" width="45.5" height="22" rx="10" ry="10"></rect>
<text x="129.75" y="113">"_"</text>
</g>
<path d="M165.25 109a10 10 0 0 0 10 -10v-10a10 10 0 0 1 10 -10"></path>
<path d="M74.25 79a10 10 0 0 1 10 10v40a10 10 0 0 0 10 10"></path>
<g class="terminal literal">
<path d="M94.25 139h4.25"></path>
<path d="M161 139h4.25"></path>
<rect x="98.5" y="128" width="62.5" height="22" rx="10" ry="10"></rect>
<text x="129.75" y="143">"and"</text>
</g>
<path d="M165.25 139a10 10 0 0 0 10 -10v-40a10 10 0 0 1 10 -10"></path>
<path d="M74.25 79a10 10 0 0 1 10 10v70a10 10 0 0 0 10 10"></path>
<g class="terminal literal">
<path d="M94.25 169h8.5"></path>
<path d="M156.75 169h8.5"></path>
<rect x="102.75" y="158" width="54" height="22" rx="10" ry="10"></rect>
<text x="129.75" y="173">"or"</text>
</g>
<path d="M165.25 169a10 10 0 0 0 10 -10v-70a10 10 0 0 1 10 -10"></path>
<path d="M74.25 79a10 10 0 0 1 10 10v100a10 10 0 0 0 10 10"></path>
<g class="terminal literal">
<path d="M94.25 199h4.25"></path>
<path d="M161 199h4.25"></path>
<rect x="98.5" y="188" width="62.5" height="22" rx="10" ry="10"></rect>
<text x="129.75" y="203">"not"</text>
</g>
<path d="M165.25 199a10 10 0 0 0 10 -10v-100a10 10 0 0 1 10 -10"></path>
<path d="M74.25 79a10 10 0 0 1 10 10v130a10 10 0 0 0 10 10"></path>
<g class="terminal literal">
<path d="M94.25 229h8.5"></path>
<path d="M156.75 229h8.5"></path>
<rect x="102.75" y="218" width="54" height="22" rx="10" ry="10"></rect>
<text x="129.75" y="233">"if"</text>
</g>
<path d="M165.25 229a10 10 0 0 0 10 -10v-130a10 10 0 0 1 10 -10"></path>
</g>
<g class="comment">
<path d="M74.25 52h0"></path>
<path d="M133.25 52h0"></path>
<text x="103.75" y="57" class="comment">Keyword</text>
</g>
</g>
<path d="M189.5 79h20"></path>
<path d="M50 79a10 10 0 0 1 10 10v192a10 10 0 0 0 10 10"></path>
<g class="Group rule">
<path d="M70 291h14.25"></path>
<path d="M175.25 291h14.25"></path>
<rect x="84.25" y="272" width="91" height="38" rx="10" ry="10" class="group-box"></rect>
<g class="terminal literal">
<path d="M84.25 291h10"></path>
<path d="M165.25 291h10"></path>
<rect x="94.25" y="280" width="71" height="22" rx="10" ry="10"></rect>
<text x="129.75" y="295">"null"</text>
</g>
<g class="comment">
<path d="M84.25 264h0"></path>
<path d="M171.25 264h0"></path>
<text x="127.75" y="269" class="comment">NullLiteral</text>
</g>
</g>
<path d="M189.5 291a10 10 0 0 0 10 -10v-192a10 10 0 0 1 10 -10"></path>
<path d="M50 79a10 10 0 0 1 10 10v254a10 10 0 0 0 10 10"></path>
<g class="Group rule">
<path d="M70 353h0"></path>
<path d="M189.5 353h0"></path>
<rect x="70" y="334" width="119.5" height="68" rx="10" ry="10" class="group-box"></rect>
<g class="Choice">
<path d="M70 353h0"></path>
<path d="M189.5 353h0"></path>
<path d="M70 353h20"></path>
<g class="terminal literal">
<path d="M90 353h4.25"></path>
<path d="M165.25 353h4.25"></path>
<rect x="94.25" y="342" width="71" height="22" rx="10" ry="10"></rect>
<text x="129.75" y="357">"true"</text>
</g>
<path d="M169.5 353h20"></path>
<path d="M70 353a10 10 0 0 1 10 10v10a10 10 0 0 0 10 10"></path>
<g class="terminal literal">
<path d="M90 383h0"></path>
<path d="M169.5 383h0"></path>
<rect x="90" y="372" width="79.5" height="22" rx="10" ry="10"></rect>
<text x="129.75" y="387">"false"</text>
</g>
<path d="M169.5 383a10 10 0 0 0 10 -10v-10a10 10 0 0 1 10 -10"></path>
</g>
<g class="comment">
<path d="M70 326h0"></path>
<path d="M178 326h0"></path>
<text x="124" y="331" class="comment">BooleanLiteral</text>
</g>
</g>
<path d="M189.5 353a10 10 0 0 0 10 -10v-254a10 10 0 0 1 10 -10"></path>
</g>
<g class="comment">
<path d="M50 28h0"></path>
<path d="M144 28h0"></path>
<text x="97" y="33" class="comment">ReservedWord</text>
</g>
</g>
<path d="M209.5 79h10"></path>
<path class="End" d="M 219.5 79 h 20 m 0 -10 v 20"></path>
</g>
<style>.ruleId {
  color: black;
  font-weight: bold;
}

.mainRule {}

.subRule {}

.subRuleAnchor {
  /* font-weight: bolder; */
  /* fill: green; */
  /* font-size: 110%;
  font-style: normal */
}

.parent {
  font-family: Verdana, Arial, Helvetica, sans-serif;
  font-size: 14px;
}

/* , .railroad-diagram */
.svg {
  display: flex;
  align-items: center;
  justify-content: center;
}

.test {
  background-color: lightgoldenrodyellow;
}


/* --------------------------------- svg styles ---------------------------------------- */

/* tspan {
  fill: blue
} */

svg.railroad-diagram {
  /*background-color: hsl(30,20%,95%);*/
  background-color: white;
}

.railroad-diagram path {
  stroke-width: 1;
  stroke: black;
  fill: rgba(0, 0, 0, 0);
}

text {
  font: bold 14px monospace;
  text-anchor: middle;
  white-space: pre;
}

text.diagram-text {
  font-size: 12px;
}

text.diagram-arrow {
  font-size: 16px;
}

text.label {
  text-anchor: start;
}

text.comment {
  font: italic 12px monospace;
}

g.non-terminal text {
  /*font-style: italic;*/
}

rect {
  stroke-width: 1;
  stroke: black;
  fill: rgb(241, 241, 241);
}

rect.group-box {
  stroke: gray;
  stroke-dasharray: 3 3;
  fill: none;
}

path.diagram-text {
  stroke-width: 3;
  stroke: black;
  fill: white;
  cursor: help;
}

.decision path {
  fill: #ccc;
}

g.diagram-text:hover path.diagram-text {
  fill: #eee;
}

text.repeat-text {
  font: italic 12px monospace;
  text-anchor: end;
}

.repeat-box>rect.group-box {
  stroke: gray;
  stroke-width: 2;
  stroke-dasharray: 1 5;
  fill: none;
}

.delimiter>rect.group-box {
  stroke: gray;
  stroke-width: 2;
  stroke-dasharray: 1 5;
  fill: none;
}</style>
</svg>
