<svg class="railroad-diagram" width="623" height="188" viewBox="0 0 623 188" xmlns="http://www.w3.org/2000/svg" xmlns:xlink="http://www.w3.org/1999/xlink">
<g transform="translate(.5 .5)">
<g class="Start">
<path d="M20 69v20m0 -10h20"></path>
</g>
<path d="M40 79h10"></path>
<g class="Group rule">
<path d="M50 79h0"></path>
<path d="M573 79h0"></path>
<rect x="50" y="36" width="523" height="132" rx="10" ry="10" class="group-box"></rect>
<g class="Choice">
<path d="M50 79h0"></path>
<path d="M573 79h0"></path>
<path d="M50 79h20"></path>
<g class="Group rule">
<path d="M70 79h0"></path>
<path d="M553 79h0"></path>
<rect x="70" y="60" width="483" height="38" rx="10" ry="10" class="group-box"></rect>
<g class="Sequence">
<path d="M70 79h10"></path>
<path d="M543 79h10"></path>
<path d="M142.5 79h10"></path>
<g class="terminal literal">
<path d="M80 79h0"></path>
<path d="M142.5 79h0"></path>
<rect x="80" y="68" width="62.5" height="22" rx="10" ry="10"></rect>
<text x="111.25" y="83">"def"</text>
</g>
<path d="M152.5 79h10"></path>
<path d="M284.5 79h10"></path>
<g class="non-terminal rule-ref">
<path d="M162.5 79h0"></path>
<path d="M284.5 79h0"></path>
<rect x="162.5" y="68" width="122" height="22"></rect>
<text x="223.5" y="83">VariableName</text>
</g>
<path d="M294.5 79h10"></path>
<path d="M350 79h10"></path>
<g class="terminal literal">
<path d="M304.5 79h0"></path>
<path d="M350 79h0"></path>
<rect x="304.5" y="68" width="45.5" height="22" rx="10" ry="10"></rect>
<text x="327.25" y="83">"="</text>
</g>
<path d="M360 79h10"></path>
<g class="non-terminal rule-ref">
<path d="M370 79h0"></path>
<path d="M543 79h0"></path>
<rect x="370" y="68" width="173" height="22"></rect>
<text x="456.5" y="83">OrdinaryExpression</text>
</g>
</g>
<g class="comment">
<path d="M70 52h0"></path>
<path d="M227 52h0"></path>
<text x="148.5" y="57" class="comment">DeclarationExpression</text>
</g>
</g>
<path d="M553 79h20"></path>
<path d="M50 79a10 10 0 0 1 10 10v42a10 10 0 0 0 10 10"></path>
<g class="Group rule">
<path d="M70 141h132.25"></path>
<path d="M420.75 141h132.25"></path>
<rect x="202.25" y="122" width="218.5" height="38" rx="10" ry="10" class="group-box"></rect>
<g class="non-terminal rule-ref">
<path d="M202.25 141h10"></path>
<path d="M410.75 141h10"></path>
<rect x="212.25" y="130" width="198.5" height="22"></rect>
<text x="311.5" y="145">ConditionalExpression</text>
</g>
<g class="comment">
<path d="M202.25 114h0"></path>
<path d="M338.25 114h0"></path>
<text x="270.25" y="119" class="comment">OrdinaryExpression</text>
</g>
</g>
<path d="M553 141a10 10 0 0 0 10 -10v-42a10 10 0 0 1 10 -10"></path>
</g>
<g class="comment">
<path d="M50 28h0"></path>
<path d="M221 28h0"></path>
<text x="135.5" y="33" class="comment">SequencedExpressionItem</text>
</g>
</g>
<path d="M573 79h10"></path>
<path class="End" d="M 583 79 h 20 m 0 -10 v 20"></path>
</g>
<style>.ruleId {
  color: black;
  font-weight: bold;
}

.mainRule {}

.subRule {}

.subRuleAnchor {
  /* font-weight: bolder; */
  /* fill: green; */
  /* font-size: 110%;
  font-style: normal */
}

.parent {
  font-family: Verdana, Arial, Helvetica, sans-serif;
  font-size: 14px;
}

/* , .railroad-diagram */
.svg {
  display: flex;
  align-items: center;
  justify-content: center;
}

.test {
  background-color: lightgoldenrodyellow;
}


/* --------------------------------- svg styles ---------------------------------------- */

/* tspan {
  fill: blue
} */

svg.railroad-diagram {
  /*background-color: hsl(30,20%,95%);*/
  background-color: white;
}

.railroad-diagram path {
  stroke-width: 1;
  stroke: black;
  fill: rgba(0, 0, 0, 0);
}

text {
  font: bold 12px monospace;
  text-anchor: middle;
  white-space: pre;
}

text.diagram-text {
  font-size: 12px;
}

text.diagram-arrow {
  font-size: 14px;
}

text.label {
  text-anchor: start;
}

text.comment {
  font: italic 12px monospace;
}

g.non-terminal text {
  /*font-style: italic;*/
}

rect {
  stroke-width: 1;
  stroke: black;
  fill: rgb(241, 241, 241);
}

rect.group-box {
  stroke: gray;
  stroke-dasharray: 3 3;
  fill: none;
}

path.diagram-text {
  stroke-width: 3;
  stroke: black;
  fill: white;
  cursor: help;
}

.decision path {
  fill: #ccc;
}

g.diagram-text:hover path.diagram-text {
  fill: #eee;
}

text.repeat-text {
  font: italic 12px monospace;
  text-anchor: end;
}

.repeat-box>rect.group-box {
  stroke: gray;
  stroke-width: 2;
  stroke-dasharray: 1 5;
  fill: none;
}

.delimiter>rect.group-box {
  stroke: gray;
  stroke-width: 2;
  stroke-dasharray: 1 5;
  fill: none;
}</style>
</svg>
