<svg class="railroad-diagram" width="472.5" height="94" viewBox="0 0 472.5 94" xmlns="http://www.w3.org/2000/svg" xmlns:xlink="http://www.w3.org/1999/xlink">
<g transform="translate(.5 .5)">
<g class="Start">
<path d="M20 45v20m0 -10h20"></path>
</g>
<path d="M40 55h10"></path>
<g class="Group rule">
<path d="M50 55h0"></path>
<path d="M422.5 55h0"></path>
<rect x="50" y="36" width="372.5" height="38" rx="10" ry="10" class="group-box"></rect>
<g class="Sequence">
<path d="M50 55h10"></path>
<path d="M412.5 55h10"></path>
<path d="M156.5 55h10"></path>
<g class="non-terminal rule-ref">
<path d="M60 55h0"></path>
<path d="M156.5 55h0"></path>
<rect x="60" y="44" width="96.5" height="22"></rect>
<text x="108.25" y="59">BasicStep</text>
</g>
<path d="M166.5 55h10"></path>
<path d="M222 55h10"></path>
<g class="terminal literal">
<path d="M176.5 55h0"></path>
<path d="M222 55h0"></path>
<rect x="176.5" y="44" width="45.5" height="22" rx="10" ry="10"></rect>
<text x="199.25" y="59">"&#91;"</text>
</g>
<path d="M232 55h10"></path>
<path d="M347 55h10"></path>
<g class="non-terminal rule-ref">
<path d="M242 55h0"></path>
<path d="M347 55h0"></path>
<rect x="242" y="44" width="105" height="22"></rect>
<text x="294.5" y="59">Expression</text>
</g>
<path d="M357 55h10"></path>
<g class="terminal literal">
<path d="M367 55h0"></path>
<path d="M412.5 55h0"></path>
<rect x="367" y="44" width="45.5" height="22" rx="10" ry="10"></rect>
<text x="389.75" y="59">"&#93;"</text>
</g>
</g>
<g class="comment">
<path d="M50 28h0"></path>
<path d="M123 28h0"></path>
<text x="86.5" y="33" class="comment">Subscript</text>
</g>
</g>
<path d="M422.5 55h10"></path>
<path class="End" d="M 432.5 55 h 20 m 0 -10 v 20"></path>
</g>
<style>.ruleId {
  color: black;
  font-weight: bold;
}

.mainRule {}

.subRule {}

.subRuleAnchor {
  /* font-weight: bolder; */
  /* fill: green; */
  /* font-size: 110%;
  font-style: normal */
}

.parent {
  font-family: Verdana, Arial, Helvetica, sans-serif;
  font-size: 14px;
}

/* , .railroad-diagram */
.svg {
  display: flex;
  align-items: center;
  justify-content: center;
}

.test {
  background-color: lightgoldenrodyellow;
}


/* --------------------------------- svg styles ---------------------------------------- */

/* tspan {
  fill: blue
} */

svg.railroad-diagram {
  /*background-color: hsl(30,20%,95%);*/
  background-color: white;
}

.railroad-diagram path {
  stroke-width: 1;
  stroke: black;
  fill: rgba(0, 0, 0, 0);
}

text {
  font: bold 14px monospace;
  text-anchor: middle;
  white-space: pre;
}

text.diagram-text {
  font-size: 12px;
}

text.diagram-arrow {
  font-size: 16px;
}

text.label {
  text-anchor: start;
}

text.comment {
  font: italic 12px monospace;
}

g.non-terminal text {
  /*font-style: italic;*/
}

rect {
  stroke-width: 1;
  stroke: black;
  fill: rgb(241, 241, 241);
}

rect.group-box {
  stroke: gray;
  stroke-dasharray: 3 3;
  fill: none;
}

path.diagram-text {
  stroke-width: 3;
  stroke: black;
  fill: white;
  cursor: help;
}

.decision path {
  fill: #ccc;
}

g.diagram-text:hover path.diagram-text {
  fill: #eee;
}

text.repeat-text {
  font: italic 12px monospace;
  text-anchor: end;
}

.repeat-box>rect.group-box {
  stroke: gray;
  stroke-width: 2;
  stroke-dasharray: 1 5;
  fill: none;
}

.delimiter>rect.group-box {
  stroke: gray;
  stroke-width: 2;
  stroke-dasharray: 1 5;
  fill: none;
}</style>
</svg>
